<svg xmlns="http://www.w3.org/2000/svg" viewBox="0 0 500 500"><g id="freepik--Floor--inject-63"><path id="freepik--floor--inject-63" d="M77.66,234.62c-95.18,54.95-95.17,144,0,199s249.49,54.95,344.67,0,95.17-144,0-199S172.84,179.67,77.66,234.62Z" style="fill:#fafafa"></path></g><g id="freepik--time-machine--inject-63"><g id="freepik--Machine--inject-63"><path d="M91.61,317.14v27.62l87.72,50.64V367.78Z" style="fill:#37474f"></path><path d="M179.33,367.78V395.4L362.67,289.56V261.94Z" style="fill:#455a64"></path><path d="M370.71,257.29,275,202,83.64,312.53v9.21L179.33,377,370.71,266.5Z" style="fill:#D50000"></path><polygon points="83.64 312.53 179.33 367.78 370.71 257.29 275.01 202.04 83.64 312.53" style="fill:#fff;opacity:0.8"></polygon><polygon points="179.33 367.78 179.33 376.99 370.71 266.5 370.71 257.29 179.33 367.78" style="fill:#fff;opacity:0.6000000000000001"></polygon><polygon points="83.64 312.53 179.33 367.78 179.33 376.99 83.64 321.74 83.64 312.53" style="fill:#fff;opacity:0.4"></polygon><g id="freepik--Chair--inject-63"><polygon points="234.36 245.92 274.93 222.5 333.99 256.59 293.42 280.01 234.36 245.92"></polygon><polygon points="293.42 253.67 293.42 283.48 234.36 249.39 234.36 219.58 293.42 253.67" style="fill:#37474f"></polygon><polygon points="293.42 253.67 293.42 283.48 333.99 260.06 333.99 230.25 293.42 253.67" style="fill:#263238"></polygon><polygon points="333.99 253.98 333.99 256.11 293.42 279.53 293.42 277.4 333.99 253.98"></polygon><polygon points="234.77 243.55 234.77 245.68 293.42 279.53 293.42 277.4 234.77 243.55" style="fill:#263238"></polygon><polygon points="334 230.25 334 248.62 311.5 261.59 293.43 271.81 234.35 237.72 234.35 219.58 280.92 246.46 305.91 246.46 334 230.25" style="opacity:0.2"></polygon><path d="M308.54,191.1a1.39,1.39,0,0,0,.4-.06,1.44,1.44,0,0,0,1-1.79l-5.88-20.1a1.44,1.44,0,1,0-2.77.81l5.87,20.1A1.45,1.45,0,0,0,308.54,191.1Z" style="fill:#263238"></path><path d="M285,158.75a1.47,1.47,0,0,1,.87-1.21l7.57-4.37a4.6,4.6,0,0,1,4.18,0l42.26,24.4a1.47,1.47,0,0,1,.86,1.2V181a1.47,1.47,0,0,1-.86,1.21l-7.58,4.37a4.58,4.58,0,0,1-4.17,0l-42.26-24.4A1.46,1.46,0,0,1,285,161Z" style="fill:#37474f"></path><path d="M285.86,157.54l7.57-4.37a4.6,4.6,0,0,1,4.18,0L330.21,172v15.12a4.31,4.31,0,0,1-2.09-.5l-42.26-24.4A1.46,1.46,0,0,1,285,161v-2.26A1.47,1.47,0,0,1,285.86,157.54Z" style="fill:#263238"></path><path d="M338.57,174.71l-39.81-23a5,5,0,0,0-5,0l-4.29,2.47c-3.46,2-4.47,2.29-4.47,4.55a1.46,1.46,0,0,0,.87,1.2l42.26,24.4a4.58,4.58,0,0,0,4.17,0l7.58-4.37a1.47,1.47,0,0,0,.86-1.21C340.73,176.46,340.45,175.8,338.57,174.71Z" style="fill:#D50000"></path><path d="M298.46,151.75,338.74,175a1.22,1.22,0,0,1,0,2.31l-7,4.06a4.91,4.91,0,0,1-4.45,0L287,158.13a1.22,1.22,0,0,1,0-2.31l7-4.07A5,5,0,0,1,298.46,151.75Z" style="fill:#fff;opacity:0.2"></path><polygon points="265.68 108.11 209.08 140.82 228.83 216.89 293.3 254.1 349.91 221.4 285.43 184.19 265.68 108.11" style="fill:#263238"></polygon><path d="M293.3,262.63,222.92,222,205,153.06l-2.43-9.36a10.53,10.53,0,0,1,.35-6.44l5.73,3.31.41.25,19.75,76.07L293.3,254.1Z" style="fill:#37474f"></path><path d="M293.3,254.12v8.49l56.61-32.7V221.4Z" style="fill:#263238"></path><path d="M265.68,108.11l-56.6,32.71-.41-.25-5.73-3.31a10.53,10.53,0,0,1,4.62-5.42L212,129.3l45.21-26.13Z" style="fill:#455a64"></path><path d="M347.17,210.21,319.12,194a1.87,1.87,0,0,0-.45-.36L295.1,180.06a6.27,6.27,0,0,1-1.91-2.87l-16.55-63.75a10.92,10.92,0,0,0-5-6.68c-1.79-1.08-6-3.54-7.74-4.55a11,11,0,0,0-11.13,0l-28.15,16.26c-9.92,5.73-17.24,15.94-14.36,27l1.92,7.43a1.36,1.36,0,0,1,0,.17l16,61.63a6.25,6.25,0,0,0,2.54,3.33L289.61,252a4.38,4.38,0,0,0,3.93,0l53.63-31a1.37,1.37,0,0,0,.81-1.13v-8.52A1.37,1.37,0,0,0,347.17,210.21Z" style="fill:#D50000"></path><path d="M348,211.34v8.52a1.41,1.41,0,0,1-.82,1.14l-53.63,31a4.32,4.32,0,0,1-3.93,0L230.79,218a6.29,6.29,0,0,1-2.54-3.33l-16-61.62a1.16,1.16,0,0,0,0-.18l-1.93-7.43c-2.87-11.08,4.45-21.29,14.37-27l28.15-16.26a11,11,0,0,1,11.13,0c1.64,1,5.14,3,7.35,4.31a11.07,11.07,0,0,0-10.92.1l-28.15,16.27a25.48,25.48,0,0,0-11.92,28.46l15.34,59.09a6.24,6.24,0,0,0,2.53,3.33l51.45,29.69a4.32,4.32,0,0,0,3.93,0l53.63-31A1.41,1.41,0,0,0,348,211.34Z" style="opacity:0.2"></path><path d="M276.64,113.44a11.09,11.09,0,0,0-16.28-6.82l-28.15,16.27a25.48,25.48,0,0,0-11.92,28.46l15.34,59.09a6.21,6.21,0,0,0,2.54,3.33l51.44,29.69a4.32,4.32,0,0,0,3.93,0l53.63-31a1.2,1.2,0,0,0,0-2.27l-51.45-29.69a6.23,6.23,0,0,1-2.53-3.33Z" style="fill:#D50000"></path><path d="M291.58,243.93a4.51,4.51,0,0,1-1.53-.26,4.28,4.28,0,0,0,1.53.27Z" style="opacity:0.1"></path><path d="M294.21,179.12a5.79,5.79,0,0,0,1.51,1.4l51.45,29.69a1.2,1.2,0,0,1,0,2.27l-53.63,31a4.32,4.32,0,0,1-3.93,0l-51.44-29.69a5.46,5.46,0,0,1-1.52-1.39Z" style="fill:#fff;opacity:0.1"></path><path d="M291.58,252.44v-8.51a4,4,0,0,0,2-.47l53.62-31a1.38,1.38,0,0,0,.81-1.14v8.52a1.37,1.37,0,0,1-.81,1.13l-53.62,31A4.09,4.09,0,0,1,291.58,252.44Z" style="opacity:0.35000000000000003"></path><path d="M236.65,212.38h0a5.46,5.46,0,0,0,1.52,1.39l51.45,29.69a3.92,3.92,0,0,0,2,.47v8.51a4,4,0,0,1-2-.46L230.79,218a5.59,5.59,0,0,1-1.51-1.39Z" style="opacity:0.1"></path></g><path d="M242.61,229.17a1.51,1.51,0,0,0,.41-.06,1.45,1.45,0,0,0,1-1.79l-5.88-20.11a1.44,1.44,0,0,0-2.77.81l5.87,20.11A1.45,1.45,0,0,0,242.61,229.17Z" style="fill:#263238"></path><path d="M219.07,196.81a1.45,1.45,0,0,1,.86-1.2l7.57-4.38a4.66,4.66,0,0,1,4.18,0l42.26,24.4a1.48,1.48,0,0,1,.86,1.21v2.26a1.47,1.47,0,0,1-.86,1.2l-7.58,4.38a4.64,4.64,0,0,1-4.17,0l-42.26-24.4a1.46,1.46,0,0,1-.86-1.21Z" style="fill:#37474f"></path><path d="M219.93,195.61l7.57-4.38a4.66,4.66,0,0,1,4.18,0l32.6,18.83v15.12a4.31,4.31,0,0,1-2.09-.5l-42.26-24.4a1.46,1.46,0,0,1-.86-1.21v-2.26A1.45,1.45,0,0,1,219.93,195.61Z" style="fill:#263238"></path><path d="M272.64,212.78l-39.81-23a5,5,0,0,0-5,0l-4.29,2.48c-3.46,2-4.46,2.28-4.46,4.54a1.46,1.46,0,0,0,.86,1.21l42.26,24.4a4.64,4.64,0,0,0,4.17,0l7.58-4.38a1.47,1.47,0,0,0,.86-1.2C274.8,214.52,274.52,213.86,272.64,212.78Z" style="fill:#D50000"></path><path d="M232.53,189.82l40.29,23.26a1.22,1.22,0,0,1,0,2.31l-7,4.06a5,5,0,0,1-4.44,0l-40.29-23.26a1.22,1.22,0,0,1,0-2.31l7-4.06A4.89,4.89,0,0,1,232.53,189.82Z" style="fill:#fff;opacity:0.2"></path><path d="M184.82,54.44c-1.54-.89-3.67-.77-6,.59L116.06,91.25c-4.69,2.71-8.5,9.31-8.5,14.73V298.1c0,2.71,1,4.62,2.49,5.5l47.84,27.64c1.54.89,3.67.76,6-.59l62.74-36.23c4.69-2.71,8.5-9.3,8.5-14.72V87.58c0-2.72-1-4.62-2.49-5.51Z" style="fill:#37474f"></path><path d="M235.15,279.7V169.81L110.05,97.59a17.39,17.39,0,0,0-2.49,8.39V298.1c0,2.71,1,4.62,2.49,5.5l47.84,27.64c1.54.89,3.67.76,6-.59l62.74-36.23C231.34,291.71,235.15,285.12,235.15,279.7Z" style="fill:#263238"></path><path d="M163.9,330.65l62.75-36.23c4.69-2.71,8.5-9.3,8.5-14.72V87.58c0-5.43-3.81-7.62-8.5-4.91L163.9,118.89c-4.69,2.71-8.5,9.3-8.5,14.72V325.74C155.4,331.16,159.21,333.36,163.9,330.65Z" style="fill:#455a64"></path><g id="freepik--Pipes--inject-63"><g id="freepik--Drain--inject-63"><g style="opacity:0.15"><path d="M99.76,310.1a14.92,14.92,0,0,1,13.55,0c1.88,1.07,2.81,2.5,2.81,3.93s-.93,2.84-2.81,3.91a14.92,14.92,0,0,1-13.55,0C97.89,316.87,97,315.44,97,314S97.89,311.17,99.76,310.1Z"></path></g><g style="opacity:0.15"><path d="M105.16,210.79h0v-3.47a9.74,9.74,0,0,1,4.88-8.44l4.46-2.61h0a3.82,3.82,0,0,1,1.6-3.52l3.82-2.21a3.82,3.82,0,0,1,3.85.38,12,12,0,0,1,5.43,9.4,3.8,3.8,0,0,1-1.59,3.52h0l-3.84,2.22h0a3.83,3.83,0,0,1-3.83-.38l-3.23,1.89a1.37,1.37,0,0,0-.69,1.19v97l0,0a4.19,4.19,0,0,1,2.16,2.52l-13-7.53Z"></path></g><path d="M118.33,186l-3.83,2.21,7.68,13.3,3.84-2.21h0a3.83,3.83,0,0,0,1.59-3.52,12,12,0,0,0-5.43-9.41A3.84,3.84,0,0,0,118.33,186Z" style="fill:#D50000"></path><g style="opacity:0.65"><path d="M118.33,186l-3.83,2.21,7.68,13.3,3.84-2.21h0a3.83,3.83,0,0,0,1.59-3.52,12,12,0,0,0-5.43-9.41A3.84,3.84,0,0,0,118.33,186Z" style="fill:#fff"></path></g><path d="M123.77,198a12,12,0,0,0-5.43-9.41c-3-1.73-5.43-.33-5.43,3.14a12,12,0,0,0,5.43,9.4C121.34,202.82,123.77,201.42,123.77,198Z" style="fill:#D50000"></path><g style="opacity:0.5"><path d="M123.77,198a12,12,0,0,0-5.43-9.41c-3-1.73-5.43-.33-5.43,3.14a12,12,0,0,0,5.43,9.4C121.34,202.82,123.77,201.42,123.77,198Z" style="fill:#fff"></path></g><g style="opacity:0.15"><path d="M123.77,198a12,12,0,0,0-5.43-9.41c-3-1.73-5.43-.33-5.43,3.14a12,12,0,0,0,5.43,9.4C121.34,202.82,123.77,201.42,123.77,198Z"></path></g><g style="opacity:0.30000000000000004"><path d="M122.18,197a8.48,8.48,0,0,0-3.84-6.65c-2.12-1.23-3.84-.23-3.84,2.21a8.51,8.51,0,0,0,3.84,6.66C120.46,200.48,122.18,199.49,122.18,197Z"></path></g><g style="opacity:0.30000000000000004"><path d="M117.22,191a8.49,8.49,0,0,0,3.84,6.65,3.62,3.62,0,0,0,1,.4,4.17,4.17,0,0,0,.14-1.05,8.48,8.48,0,0,0-3.84-6.65,3.62,3.62,0,0,0-1-.4A4.11,4.11,0,0,0,117.22,191Z"></path></g><path d="M121.06,199.53l-8.42,4.87a1.35,1.35,0,0,0-.69,1.18V315.12H101.09V207.61h0v-3.46A9.76,9.76,0,0,1,106,195.7l9.66-5.58a2.69,2.69,0,0,1,2.72.27,8.48,8.48,0,0,1,3.84,6.65,2.69,2.69,0,0,1-1.13,2.49Z" style="fill:#D50000"></path><g style="opacity:0.8"><path d="M121.06,199.53l-8.42,4.87a1.35,1.35,0,0,0-.69,1.18V315.12H101.09V207.61h0v-3.46A9.76,9.76,0,0,1,106,195.7l9.66-5.58a2.69,2.69,0,0,1,2.72.27,8.48,8.48,0,0,1,3.84,6.65,2.69,2.69,0,0,1-1.13,2.49Z" style="fill:#fff"></path></g><g style="opacity:0.30000000000000004"><path d="M121.06,199.53l-8.42,4.87a1.35,1.35,0,0,0-.69,1.18V315.12h-4V211.47h0V208a9.73,9.73,0,0,1,4.87-8.44l8.79-5.08a7.14,7.14,0,0,1,.59,2.56,2.69,2.69,0,0,1-1.13,2.49Z" style="fill:#D50000"></path></g><path d="M98.83,309v4.43a3.83,3.83,0,0,0,2.26,3.16,12,12,0,0,0,10.89,0,3.83,3.83,0,0,0,2.26-3.15V309H112a2.18,2.18,0,0,1-.72,1.57l-.18.17a4.63,4.63,0,0,1-.67.48,8.47,8.47,0,0,1-7.69,0,5.26,5.26,0,0,1-.67-.48l-.18-.17a2.22,2.22,0,0,1-.75-1.57Z" style="fill:#D50000"></path><g style="opacity:0.65"><path d="M98.83,309v4.43a3.83,3.83,0,0,0,2.26,3.16,12,12,0,0,0,10.89,0,3.83,3.83,0,0,0,2.26-3.15V309H112a2.18,2.18,0,0,1-.72,1.57l-.18.17a4.63,4.63,0,0,1-.67.48,8.47,8.47,0,0,1-7.69,0,5.26,5.26,0,0,1-.67-.48l-.18-.17a2.22,2.22,0,0,1-.75-1.57Z" style="fill:#fff"></path></g><path d="M98.83,309a3.84,3.84,0,0,0,2.26,3.15,12.07,12.07,0,0,0,10.89,0,3.33,3.33,0,0,0,0-6.3l0,0V309h0a2.18,2.18,0,0,1-.72,1.57l-.18.17a4.63,4.63,0,0,1-.67.48,8.47,8.47,0,0,1-7.69,0,5.26,5.26,0,0,1-.67-.48l-.18-.17a2.22,2.22,0,0,1-.75-1.57V305.8A3.83,3.83,0,0,0,98.83,309Z" style="fill:#D50000"></path><g style="opacity:0.5"><path d="M98.83,309a3.84,3.84,0,0,0,2.26,3.15,12.07,12.07,0,0,0,10.89,0,3.33,3.33,0,0,0,0-6.3l0,0V309h0a2.18,2.18,0,0,1-.72,1.57l-.18.17a4.63,4.63,0,0,1-.67.48,8.47,8.47,0,0,1-7.69,0,5.26,5.26,0,0,1-.67-.48l-.18-.17a2.22,2.22,0,0,1-.75-1.57V305.8A3.83,3.83,0,0,0,98.83,309Z" style="fill:#fff"></path></g><g style="opacity:0.15"><path d="M98.83,309a3.84,3.84,0,0,0,2.26,3.15,12.07,12.07,0,0,0,10.89,0,3.33,3.33,0,0,0,0-6.3l0,0V309h0a2.18,2.18,0,0,1-.72,1.57l-.18.17a4.63,4.63,0,0,1-.67.48,8.47,8.47,0,0,1-7.69,0,5.26,5.26,0,0,1-.67-.48l-.18-.17a2.22,2.22,0,0,1-.75-1.57V305.8A3.83,3.83,0,0,0,98.83,309Z"></path></g></g><g id="freepik--drain--inject-63"><g style="opacity:0.15"><path d="M115.42,319A14.89,14.89,0,0,1,129,319c1.88,1.08,2.81,2.5,2.81,3.93s-.93,2.84-2.81,3.92a15,15,0,0,1-13.54,0c-1.88-1.08-2.81-2.51-2.81-3.93S113.54,320.11,115.42,319Z"></path></g><g style="opacity:0.15"><path d="M120.84,216.38a9.74,9.74,0,0,1,4.88-8.44l4.46-2.61h0a3.81,3.81,0,0,1,1.6-3.52l3.83-2.21a3.8,3.8,0,0,1,3.84.38,12,12,0,0,1,5.43,9.4,3.83,3.83,0,0,1-1.58,3.52h0l-3.85,2.22h0a3.83,3.83,0,0,1-3.83-.38l-3.23,1.89a1.38,1.38,0,0,0-.68,1.18v97l0,0a4.2,4.2,0,0,1,2.15,2.52l-13-7.54v-90h0Z"></path></g><path d="M134,195l-3.84,2.21,7.68,13.3,3.84-2.21h0a3.81,3.81,0,0,0,1.59-3.52,12,12,0,0,0-5.43-9.41A3.82,3.82,0,0,0,134,195Z" style="fill:#D50000"></path><g style="opacity:0.65"><path d="M134,195l-3.84,2.21,7.68,13.3,3.84-2.21h0a3.81,3.81,0,0,0,1.59-3.52,12,12,0,0,0-5.43-9.41A3.82,3.82,0,0,0,134,195Z" style="fill:#fff"></path></g><path d="M139.45,207a12,12,0,0,0-5.43-9.41c-3-1.73-5.43-.33-5.43,3.14a12,12,0,0,0,5.43,9.4C137,211.88,139.46,210.48,139.45,207Z" style="fill:#D50000"></path><g style="opacity:0.5"><path d="M139.45,207a12,12,0,0,0-5.43-9.41c-3-1.73-5.43-.33-5.43,3.14a12,12,0,0,0,5.43,9.4C137,211.88,139.46,210.48,139.45,207Z" style="fill:#fff"></path></g><g style="opacity:0.15"><path d="M139.45,207a12,12,0,0,0-5.43-9.41c-3-1.73-5.43-.33-5.43,3.14a12,12,0,0,0,5.43,9.4C137,211.88,139.46,210.48,139.45,207Z"></path></g><g style="opacity:0.30000000000000004"><path d="M137.86,206.1a8.48,8.48,0,0,0-3.84-6.65c-2.12-1.23-3.84-.24-3.84,2.21a8.51,8.51,0,0,0,3.84,6.66C136.15,209.54,137.86,208.55,137.86,206.1Z"></path></g><g style="opacity:0.30000000000000004"><path d="M132.9,200.1a8.49,8.49,0,0,0,3.84,6.65,4.6,4.6,0,0,0,1,.4,3.81,3.81,0,0,0,.14-1.05,8.48,8.48,0,0,0-3.84-6.65,4,4,0,0,0-1-.41A4.25,4.25,0,0,0,132.9,200.1Z"></path></g><path d="M136.74,208.59l-8.42,4.86a1.37,1.37,0,0,0-.69,1.19v109H116.77v-107h0V213.2a9.74,9.74,0,0,1,4.88-8.44l9.65-5.58a2.69,2.69,0,0,1,2.72.27,8.48,8.48,0,0,1,3.84,6.65,2.71,2.71,0,0,1-1.13,2.49Z" style="fill:#D50000"></path><g style="opacity:0.8"><path d="M136.74,208.59l-8.42,4.86a1.37,1.37,0,0,0-.69,1.19v109H116.77v-107h0V213.2a9.74,9.74,0,0,1,4.88-8.44l9.65-5.58a2.69,2.69,0,0,1,2.72.27,8.48,8.48,0,0,1,3.84,6.65,2.71,2.71,0,0,1-1.13,2.49Z" style="fill:#fff"></path></g><g style="opacity:0.30000000000000004"><path d="M136.74,208.59l-8.42,4.86a1.37,1.37,0,0,0-.69,1.19v109h-4V220.53h0v-3.47a9.76,9.76,0,0,1,4.87-8.44l8.79-5.08a7.14,7.14,0,0,1,.59,2.56,2.71,2.71,0,0,1-1.13,2.49Z" style="fill:#D50000"></path></g><path d="M114.51,318v4.43a3.83,3.83,0,0,0,2.26,3.16,12,12,0,0,0,10.89,0,3.82,3.82,0,0,0,2.27-3.15V318h-2.29a2.21,2.21,0,0,1-.73,1.57l-.18.17a4.51,4.51,0,0,1-.66.48,8.5,8.5,0,0,1-7.7,0,4.51,4.51,0,0,1-.66-.48l-.19-.17a2.23,2.23,0,0,1-.75-1.57Z" style="fill:#D50000"></path><g style="opacity:0.65"><path d="M114.51,318v4.43a3.83,3.83,0,0,0,2.26,3.16,12,12,0,0,0,10.89,0,3.82,3.82,0,0,0,2.27-3.15V318h-2.29a2.21,2.21,0,0,1-.73,1.57l-.18.17a4.51,4.51,0,0,1-.66.48,8.5,8.5,0,0,1-7.7,0,4.51,4.51,0,0,1-.66-.48l-.19-.17a2.23,2.23,0,0,1-.75-1.57Z" style="fill:#fff"></path></g><path d="M114.51,318a3.81,3.81,0,0,0,2.26,3.14,12,12,0,0,0,10.89,0,3.31,3.31,0,0,0,0-6.29l0,0V318h0a2.21,2.21,0,0,1-.73,1.57l-.18.17a4.51,4.51,0,0,1-.66.48,8.5,8.5,0,0,1-7.7,0,4.51,4.51,0,0,1-.66-.48l-.19-.17a2.23,2.23,0,0,1-.75-1.57v-3.15A3.83,3.83,0,0,0,114.51,318Z" style="fill:#D50000"></path><g style="opacity:0.5"><path d="M114.51,318a3.81,3.81,0,0,0,2.26,3.14,12,12,0,0,0,10.89,0,3.31,3.31,0,0,0,0-6.29l0,0V318h0a2.21,2.21,0,0,1-.73,1.57l-.18.17a4.51,4.51,0,0,1-.66.48,8.5,8.5,0,0,1-7.7,0,4.51,4.51,0,0,1-.66-.48l-.19-.17a2.23,2.23,0,0,1-.75-1.57v-3.15A3.83,3.83,0,0,0,114.51,318Z" style="fill:#fff"></path></g><g style="opacity:0.15"><path d="M114.51,318a3.81,3.81,0,0,0,2.26,3.14,12,12,0,0,0,10.89,0,3.31,3.31,0,0,0,0-6.29l0,0V318h0a2.21,2.21,0,0,1-.73,1.57l-.18.17a4.51,4.51,0,0,1-.66.48,8.5,8.5,0,0,1-7.7,0,4.51,4.51,0,0,1-.66-.48l-.19-.17a2.23,2.23,0,0,1-.75-1.57v-3.15A3.83,3.83,0,0,0,114.51,318Z"></path></g></g></g><path d="M247.09,214.9l2.47,1.42a1,1,0,0,1,0,1.66l-2.47,1.42Z" style="fill:#e0e0e0"></path><path d="M164.43,247.82l-2.22,1.28a2.52,2.52,0,0,0,0,4.36l2.22,1.29Z" style="fill:#e0e0e0"></path><path d="M238.9,203.93c-33.73-30-77.86,22.19-76.42,60.73l12.43,7.17,75-43.27C249.39,219,246,210.25,238.9,203.93Z" style="fill:#D50000"></path><path d="M238.9,203.93c-33.73-30-77.86,22.19-76.42,60.73l12.43,7.17,75-43.27C249.39,219,246,210.25,238.9,203.93Z" style="fill:#fff;opacity:0.4"></path><path d="M184.73,296.68c-15.21-5.81-21.74-18-22.25-32l12.43,7.17,75-43.27C251.61,262.67,216.88,308,184.73,296.68Z" style="fill:#263238"></path><path d="M237.71,205.74a19.61,19.61,0,0,0-10-2.56c-5.19,0-10.79,1.69-16.58,5-20,11.54-36.22,39.69-36.22,62.76,0,.28,0,.55,0,.83l73.88-42.65C248.64,218.07,244.71,209.78,237.71,205.74Z" style="fill:#D50000"></path><path d="M237.71,205.74a19.61,19.61,0,0,0-10-2.56c-5.19,0-10.79,1.69-16.58,5-20,11.54-36.22,39.69-36.22,62.76,0,.28,0,.55,0,.83l73.88-42.65C248.64,218.07,244.71,209.78,237.71,205.74Z" style="fill:#fff;opacity:0.2"></path><path d="M186,295.24a19.64,19.64,0,0,0,10,2.56c5.2,0,10.78-1.7,16.58-5.05,20-11.53,36.26-39.69,36.26-62.76,0-.28,0-.55,0-.83l-73.9,42.66C175.11,282.88,179,291.2,186,295.24Z" style="fill:#455a64"></path><path d="M237.93,225.44v20l10.82-6.25a4.49,4.49,0,0,0,2.25-3.89V217.17a1.25,1.25,0,0,1-.63,1.07Z" style="fill:#f0f0f0"></path><path d="M250.37,216.06l-4.1-2.37c.36.73.71,1.53,1,2.4l1,.55a.54.54,0,0,1,0,.94l-11.9,6.88,1.56,1,12.44-7.2A1.26,1.26,0,0,0,250.37,216.06Z" style="fill:#fafafa"></path><path d="M197.45,284.7c4.84,2.8,11.53,2.39,18.91-1.87,14.78-8.53,26.76-29.28,26.76-46.34,0-8.54-3-14.53-7.84-17.33l-4.1-2.37c-4.84-2.79-11.53-2.39-18.92,1.88C197.48,227.2,185.5,248,185.5,265c0,8.53,3,14.53,7.84,17.32Z" style="fill:#263238"></path><path d="M243.12,236.48c0-8.53-3-14.52-7.84-17.32s-11.53-2.39-18.92,1.88c-14.77,8.53-26.75,29.28-26.75,46.34,0,8.53,3,14.53,7.83,17.32s11.54,2.39,18.92-1.87C231.14,274.3,243.12,253.55,243.12,236.48Z" style="fill:#455a64"></path><path d="M216,281.74c-7.17,4.14-13.66,4.53-18.36,1.82S190,275,190,266.74c0-16.56,11.63-36.71,26-45,7.17-4.14,13.66-4.53,18.36-1.82s7.61,8.54,7.61,16.82C242,253.31,230.33,273.46,216,281.74Z" style="fill:#fafafa"></path><path d="M227.59,221.4h0a10.19,10.19,0,0,1,5.16,1.3c3.88,2.24,6,7.23,6,14.05,0,15.52-10.94,34.46-24.38,42.22a20.62,20.62,0,0,1-10,3.12,10.19,10.19,0,0,1-5.16-1.3c-3.88-2.24-6-7.23-6-14.05,0-15.52,10.94-34.46,24.38-42.22a20.62,20.62,0,0,1,10-3.12m0-3.2a23.48,23.48,0,0,0-11.6,3.55c-14.35,8.28-26,28.43-26,45,0,8.28,2.91,14.1,7.61,16.82a13.43,13.43,0,0,0,6.76,1.73,23.51,23.51,0,0,0,11.6-3.55c14.35-8.28,26-28.43,26-45,0-8.28-2.91-14.1-7.61-16.82a13.43,13.43,0,0,0-6.76-1.73Z" style="fill:#D50000"></path><path d="M216,252.81h0c-.45.26-.82,0-.82-.63V236.49a2,2,0,0,1,.82-1.59h0c.46-.26.83,0,.83.63v15.7A2,2,0,0,1,216,252.81Z" style="fill:#37474f"></path><path d="M215.27,252.58h0a2.19,2.19,0,0,1,.33-1.92l6-8.52c.4-.57.9-.63,1.12-.14h0a2.21,2.21,0,0,1-.32,1.92l-6,8.51C216,253,215.49,253.07,215.27,252.58Z" style="fill:#37474f"></path><path d="M216,255.89a2.18,2.18,0,0,1-3.58-2.07A7.94,7.94,0,0,1,216,247.6a2.19,2.19,0,0,1,3.59,2.08A7.92,7.92,0,0,1,216,255.89Z" style="fill:#D50000"></path><path d="M216,254.57a1.71,1.71,0,0,1-1.72.17,1.74,1.74,0,0,1-.72-1.58,5.44,5.44,0,0,1,2.44-4.24,1.49,1.49,0,0,1,2.45,1.41A5.42,5.42,0,0,1,216,254.57Z" style="fill:#37474f"></path><path d="M216.17,230.64a.55.55,0,0,1-.64,0,.83.83,0,0,1-.27-.7,2.17,2.17,0,0,1,.91-1.73.56.56,0,0,1,.64,0,.86.86,0,0,1,.27.7A2.19,2.19,0,0,1,216.17,230.64Z" style="fill:#37474f"></path><path d="M216.17,275.16a.55.55,0,0,1-.64,0,.82.82,0,0,1-.27-.7,2.18,2.18,0,0,1,.91-1.73.57.57,0,0,1,.64,0,.89.89,0,0,1,.27.71A2.18,2.18,0,0,1,216.17,275.16Z" style="fill:#37474f"></path><path d="M196.63,264.17a.56.56,0,0,1-.64,0,.87.87,0,0,1-.26-.7,2.18,2.18,0,0,1,.9-1.74.57.57,0,0,1,.65,0,.86.86,0,0,1,.26.7A2.17,2.17,0,0,1,196.63,264.17Z" style="fill:#37474f"></path><path d="M204.13,276.59a.55.55,0,0,1-.64,0,.86.86,0,0,1-.26-.7,2.16,2.16,0,0,1,.9-1.73.56.56,0,0,1,.64,0,.83.83,0,0,1,.27.7A2.19,2.19,0,0,1,204.13,276.59Z" style="fill:#37474f"></path><path d="M204.13,244.29a.55.55,0,0,1-.64,0,.85.85,0,0,1-.26-.7,2.16,2.16,0,0,1,.9-1.73.56.56,0,0,1,.64,0,.85.85,0,0,1,.27.71A2.18,2.18,0,0,1,204.13,244.29Z" style="fill:#37474f"></path><path d="M235.7,241.62a1.94,1.94,0,0,0,.65-.73,2.26,2.26,0,0,0,.26-1c0-.67-.4-1-.91-.68a1.82,1.82,0,0,0-.64.72,2.3,2.3,0,0,0-.26,1C234.8,241.6,235.2,241.9,235.7,241.62Z" style="fill:#37474f"></path><path d="M228.21,262.69a1.85,1.85,0,0,0,.64-.73,2.26,2.26,0,0,0,.26-1c0-.66-.4-1-.9-.68a1.77,1.77,0,0,0-.65.72,2.33,2.33,0,0,0-.26,1C227.3,262.67,227.7,263,228.21,262.69Z" style="fill:#37474f"></path><path d="M228.21,230.39a1.82,1.82,0,0,0,.64-.72,2.33,2.33,0,0,0,.26-1c0-.67-.4-1-.9-.69a1.8,1.8,0,0,0-.65.73,2.26,2.26,0,0,0-.26,1C227.3,230.37,227.7,230.68,228.21,230.39Z" style="fill:#37474f"></path><path d="M227.59,218.2a13.43,13.43,0,0,1,6.76,1.73c4.7,2.72,7.61,8.54,7.61,16.82,0,16.56-11.63,36.71-26,45a23.51,23.51,0,0,1-11.6,3.55,13.43,13.43,0,0,1-6.76-1.73c-4.7-2.72-7.61-8.54-7.61-16.82,0-16.56,11.63-36.71,26-45a23.48,23.48,0,0,1,11.6-3.55m0-1.06h0a24.5,24.5,0,0,0-12.14,3.69c-14.61,8.44-26.51,29-26.51,45.91,0,8.41,2.89,14.71,8.14,17.74a14.42,14.42,0,0,0,7.3,1.87,24.5,24.5,0,0,0,12.14-3.69c14.61-8.44,26.51-29,26.51-45.91,0-8.41-2.89-14.71-8.14-17.74a14.45,14.45,0,0,0-7.3-1.87Z" style="fill:#37474f"></path><path d="M188.77,253.81l-8.05,4.65a9.93,9.93,0,0,1-9.87,0l-6.43-3.71-2.2-1.29a2.45,2.45,0,0,1-1.26-2.18v20a2.5,2.5,0,0,0,1.24,2.22h0l1.79,1.05.41.23,6.43,3.72a9.93,9.93,0,0,0,9.87,0l7.47-4.32C186.63,269.16,186.72,261.22,188.77,253.81Z" style="fill:#f0f0f0"></path><path d="M187.31,252.78l-8.09,4.44a7,7,0,0,1-6.91-.08L163.49,252c-.69-.4-.69-1.05,0-1.48l.34-.19.6-2.54-2.21,1.28a2.53,2.53,0,0,0,0,4.39l8.58,5a9.89,9.89,0,0,0,9.91,0l8.07-4.67Z" style="fill:#fafafa"></path><path d="M175.78,259.78a10,10,0,0,1-4.93-1.32l-6.43-3.71-2.2-1.29a2.45,2.45,0,0,1-1.26-2.18v20a2.5,2.5,0,0,0,1.24,2.22h0l1.79,1.05.41.23,6.43,3.72a9.94,9.94,0,0,0,4.93,1.31Z" style="fill:#e0e0e0"></path><g id="freepik--Valve--inject-63"><g id="freepik--valve--inject-63"><path d="M149,289.26a10.7,10.7,0,0,1,4.89-8.41,3.45,3.45,0,0,1,3.44-.34l2.49,1.44a3.38,3.38,0,0,1,1.41,3.14,10.8,10.8,0,0,1-4.88,8.41,3.39,3.39,0,0,1-3.43.34l-2.51-1.45A3.41,3.41,0,0,1,149,289.26Z" style="fill:#37474f"></path><path d="M156.36,293.5c-2.69,1.55-4.87.3-4.87-2.81a10.7,10.7,0,0,1,4.89-8.41c2.7-1.54,4.88-.29,4.86,2.81A10.78,10.78,0,0,1,156.36,293.5Z" style="fill:#455a64"></path><path d="M156.36,292.32c-2.12,1.22-3.84.23-3.84-2.22a8.46,8.46,0,0,1,3.86-6.64c2.13-1.22,3.85-.22,3.84,2.22A8.52,8.52,0,0,1,156.36,292.32Z" style="fill:#fafafa"></path><polygon points="156.67 287.88 156.37 284.07 156.07 287.88 156.67 287.88" style="fill:#D50000"></polygon><path d="M156.37,288.63c-.36.21-.64,0-.64-.37a1.43,1.43,0,0,1,.64-1.11c.36-.2.64,0,.64.37A1.42,1.42,0,0,1,156.37,288.63Z" style="fill:#455a64"></path></g><g id="freepik--Tube--inject-63"><path d="M154.81,281.63a2.17,2.17,0,0,0,2,0,.71.71,0,0,0,.41-.57c0-.1,0-6.19,0-6.29a.67.67,0,0,0-.4-.56,2.2,2.2,0,0,0-2,0,.71.71,0,0,0-.41.57c0,.1,0,6.19,0,6.29A.67.67,0,0,0,154.81,281.63Z" style="fill:#D50000"></path><path d="M154.81,281.63a2.17,2.17,0,0,0,2,0,.71.71,0,0,0,.41-.57c0-.1,0-6.19,0-6.29a.67.67,0,0,0-.4-.56,2.2,2.2,0,0,0-2,0,.71.71,0,0,0-.41.57c0,.1,0,6.19,0,6.29A.67.67,0,0,0,154.81,281.63Z" style="fill:#fff;opacity:0.8"></path><path d="M154.81,274.21a.71.71,0,0,0-.41.57c0,.1,0,6.19,0,6.29a.67.67,0,0,0,.4.56,1.76,1.76,0,0,0,.76.21V274A2,2,0,0,0,154.81,274.21Z" style="fill:#D50000;opacity:0.30000000000000004"></path><path d="M154.81,274.21c-.55.32-.55.83,0,1.14a2.2,2.2,0,0,0,2,0,.6.6,0,0,0,0-1.14A2.2,2.2,0,0,0,154.81,274.21Z" style="fill:#D50000"></path></g><g id="freepik--tube--inject-63"><path d="M169.07,267.8a4.17,4.17,0,0,0-1.89-3.26,1.33,1.33,0,0,0-1.34-.13l-25.5,14.75a1.28,1.28,0,0,0-.55,1.22,4.17,4.17,0,0,0,1.89,3.26,1.31,1.31,0,0,0,1.33.13L168.53,269A1.35,1.35,0,0,0,169.07,267.8Z" style="fill:#D50000"></path><path d="M169.07,267.8a4.17,4.17,0,0,0-1.89-3.26,1.33,1.33,0,0,0-1.34-.13l-25.5,14.75a1.28,1.28,0,0,0-.55,1.22,4.17,4.17,0,0,0,1.89,3.26,1.31,1.31,0,0,0,1.33.13L168.53,269A1.35,1.35,0,0,0,169.07,267.8Z" style="fill:#fff;opacity:0.8"></path><path d="M141.68,283.64a1.31,1.31,0,0,0,1.33.13L168.53,269a1.35,1.35,0,0,0,.54-1.22,3.64,3.64,0,0,0-.38-1.46L140.6,282.58A3.75,3.75,0,0,0,141.68,283.64Z" style="fill:#D50000;opacity:0.30000000000000004"></path><path d="M141.68,283.64c1,.6,1.89.12,1.89-1.09a4.15,4.15,0,0,0-1.9-3.26c-1-.6-1.89-.12-1.88,1.09A4.17,4.17,0,0,0,141.68,283.64Z" style="fill:#D50000"></path></g><g id="freepik--valve--inject-63"><path d="M130.94,286.22a14.47,14.47,0,0,1,6.59-11.36c1.82-1,3.46-1.13,4.65-.44l3.36,1.94c1.19.68,1.92,2.14,1.91,4.23a14.57,14.57,0,0,1-6.59,11.35c-1.81,1.05-3.45,1.14-4.64.46l-3.38-2C131.67,289.75,130.94,288.29,130.94,286.22Z" style="fill:#37474f"></path><path d="M140.86,291.94c-3.63,2.1-6.57.4-6.57-3.79a14.44,14.44,0,0,1,6.6-11.35c3.64-2.08,6.58-.39,6.56,3.79A14.57,14.57,0,0,1,140.86,291.94Z" style="fill:#455a64"></path><path d="M140.86,290.35c-2.86,1.65-5.18.31-5.18-3a11.43,11.43,0,0,1,5.2-9c2.88-1.64,5.2-.3,5.18,3A11.5,11.5,0,0,1,140.86,290.35Z" style="fill:#fafafa"></path><polygon points="141.28 284.36 140.87 279.22 140.47 284.36 141.28 284.36" style="fill:#D50000"></polygon><path d="M140.87,285.37c-.48.28-.86.05-.86-.5a1.88,1.88,0,0,1,.86-1.49c.48-.28.87-.05.87.5A1.93,1.93,0,0,1,140.87,285.37Z" style="fill:#455a64"></path></g></g><polygon points="163.38 206.01 227.17 169.18 227.17 174.44 163.38 211.27 163.38 206.01" style="fill:#37474f"></polygon><polygon points="225.77 169.99 163.38 206.01 163.38 209.65 225.77 173.63 225.77 169.99" style="fill:#263238"></polygon><polygon points="221.53 172.15 216.98 174.78 216.98 185.3 221.53 182.67 221.53 172.15" style="fill:#D50000"></polygon><polygon points="221.53 172.15 216.98 174.78 216.98 185.3 221.53 182.67 221.53 172.15" style="fill:#fff;opacity:0.5"></polygon><polygon points="221.53 172.15 216.98 174.78 214.7 173.46 219.26 170.83 221.53 172.15" style="fill:#D50000"></polygon><polygon points="216.98 185.3 214.7 183.98 214.7 173.46 216.98 174.78 216.98 185.3" style="fill:#D50000"></polygon><polygon points="216.98 185.3 214.7 183.98 214.7 173.46 216.98 174.78 216.98 185.3" style="fill:#fff;opacity:0.30000000000000004"></polygon><polygon points="163.38 187.6 227.17 150.77 227.17 156.03 163.38 192.86 163.38 187.6" style="fill:#37474f"></polygon><polygon points="225.77 151.58 163.38 187.6 163.38 191.23 225.77 155.22 225.77 151.58" style="fill:#263238"></polygon><polygon points="194.39 168.86 189.83 171.49 189.83 182.01 194.39 179.38 194.39 168.86" style="fill:#D50000"></polygon><polygon points="194.39 168.86 189.83 171.49 189.83 182.01 194.39 179.38 194.39 168.86" style="fill:#fff;opacity:0.5"></polygon><polygon points="194.39 168.86 189.83 171.49 187.55 170.17 192.11 167.54 194.39 168.86" style="fill:#D50000"></polygon><polygon points="189.83 182.01 187.55 180.69 187.55 170.17 189.83 171.49 189.83 182.01" style="fill:#D50000"></polygon><polygon points="189.83 182.01 187.55 180.69 187.55 170.17 189.83 171.49 189.83 182.01" style="fill:#fff;opacity:0.30000000000000004"></polygon><polygon points="163.38 169.18 227.17 132.35 227.17 137.61 163.38 174.44 163.38 169.18" style="fill:#37474f"></polygon><polygon points="225.77 133.16 163.38 169.18 163.38 172.82 225.77 136.8 225.77 133.16" style="fill:#263238"></polygon><polygon points="176.38 160.96 171.82 163.59 171.82 174.12 176.38 171.49 176.38 160.96" style="fill:#D50000"></polygon><polygon points="176.38 160.96 171.82 163.59 171.82 174.12 176.38 171.49 176.38 160.96" style="fill:#fff;opacity:0.5"></polygon><polygon points="176.38 160.96 171.82 163.59 169.54 162.28 174.1 159.65 176.38 160.96" style="fill:#D50000"></polygon><polygon points="171.82 174.12 169.54 172.8 169.54 162.28 171.82 163.59 171.82 174.12" style="fill:#D50000"></polygon><polygon points="171.82 174.12 169.54 172.8 169.54 162.28 171.82 163.59 171.82 174.12" style="fill:#fff;opacity:0.30000000000000004"></polygon><path d="M176.71,124.16v23.69a3.78,3.78,0,0,1-1.7,3L167.68,155c-.76.45-1.39.23-1.61-.43A1.56,1.56,0,0,1,166,154v-23.7a3.74,3.74,0,0,1,1.68-2.94l7.33-4.22a1.67,1.67,0,0,1,.53-.2C176.22,122.82,176.71,123.28,176.71,124.16Z" style="fill:#263238"></path><path d="M192.65,115v23.7a3.77,3.77,0,0,1-1.7,2.94l-7.33,4.22c-.74.45-1.39.24-1.59-.43a1.32,1.32,0,0,1-.09-.55V121.14a3.82,3.82,0,0,1,1.68-3L191,114a1.67,1.67,0,0,1,.53-.2C192.16,113.62,192.65,114.07,192.65,115Z" style="fill:#263238"></path><path d="M208.59,105.74v23.7a3.74,3.74,0,0,1-1.68,2.94l-7.33,4.22c-.76.46-1.41.24-1.61-.43a1.3,1.3,0,0,1-.09-.55V111.93a3.78,3.78,0,0,1,1.7-3l7.33-4.22a1.9,1.9,0,0,1,.53-.19C208.12,104.41,208.59,104.86,208.59,105.74Z" style="fill:#263238"></path><path d="M224.55,96.54v23.69a3.78,3.78,0,0,1-1.7,3l-7.33,4.22c-.76.45-1.39.23-1.61-.43a1.84,1.84,0,0,1-.07-.55v-23.7a3.71,3.71,0,0,1,1.68-2.94l7.33-4.22a1.67,1.67,0,0,1,.53-.2C224.06,95.2,224.55,95.65,224.55,96.54Z" style="fill:#263238"></path><path d="M175.61,123.51v23.71a3.78,3.78,0,0,1-1.7,2.95l-7.31,4.22a1.67,1.67,0,0,1-.53.2A1.56,1.56,0,0,1,166,154v-23.7a3.74,3.74,0,0,1,1.68-2.94l7.33-4.22a1.67,1.67,0,0,1,.53-.2A1.48,1.48,0,0,1,175.61,123.51Z" style="fill:#fafafa"></path><path d="M167.78,147.16a3.7,3.7,0,0,1-.11-.87.69.69,0,0,1,.06-.33l3.31-8.31a15.79,15.79,0,0,0,.54-1.57,4.34,4.34,0,0,0,.16-1.07c0-.52-.12-.84-.37-1a1,1,0,0,0-1,.15,3.26,3.26,0,0,0-.78.64,8.62,8.62,0,0,0-.69.89,1.78,1.78,0,0,1-.36.44c-.17.1-.33,0-.49-.16a1.09,1.09,0,0,1-.22-.68,2.11,2.11,0,0,1,.42-1.12,6.59,6.59,0,0,1,1.07-1.21,7.4,7.4,0,0,1,1.28-.95c.94-.54,1.68-.65,2.22-.32a2.29,2.29,0,0,1,.8,2.08,6.83,6.83,0,0,1-.28,1.9,21.5,21.5,0,0,1-1,2.64l-2.36,6,3.27-1.88c.13-.09.24-.08.3,0a1.21,1.21,0,0,1,.1.59v.3a2.15,2.15,0,0,1-.1.71.7.7,0,0,1-.3.37l-5.26,3C167.94,147.58,167.85,147.46,167.78,147.16Z" style="fill:#455a64"></path><path d="M191.55,114.3V138a3.68,3.68,0,0,1-1.68,2.94l-7.33,4.24a1.42,1.42,0,0,1-.51.2,1.32,1.32,0,0,1-.09-.55V121.14a3.82,3.82,0,0,1,1.68-3L191,114a1.67,1.67,0,0,1,.53-.2A1.79,1.79,0,0,1,191.55,114.3Z" style="fill:#fafafa"></path><path d="M184.51,137.71c-.61.1-.92-.07-.92-.52a3,3,0,0,1,.23-1,1.47,1.47,0,0,1,.42-.74.47.47,0,0,1,.34,0,4.43,4.43,0,0,0,.73,0,2,2,0,0,0,.76-.29,3.18,3.18,0,0,0,1.14-1.21,3.85,3.85,0,0,0,.46-1.93c0-.77-.15-1.24-.44-1.43s-.75-.1-1.36.25l-.54.32c-.14.08-.25.07-.31,0a1.21,1.21,0,0,1-.1-.59v-.3a2.15,2.15,0,0,1,.1-.71.67.67,0,0,1,.31-.37l.43-.25a3,3,0,0,0,1.17-1.27,3.74,3.74,0,0,0,.41-1.63,1.38,1.38,0,0,0-.31-1c-.22-.2-.54-.17-1,.08a3.14,3.14,0,0,0-.7.54,4.77,4.77,0,0,0-.51.6,1.77,1.77,0,0,1-.29.34c-.12.07-.25,0-.41-.24a1.24,1.24,0,0,1-.24-.71,2.23,2.23,0,0,1,.77-1.39,7.64,7.64,0,0,1,1.74-1.36c.87-.5,1.56-.6,2.06-.27s.76,1,.76,2.06a5.28,5.28,0,0,1-.39,2,5.77,5.77,0,0,1-1,1.72v.08a1.29,1.29,0,0,1,1.3.57,3.48,3.48,0,0,1,.47,2,7.46,7.46,0,0,1-.4,2.46,7.08,7.08,0,0,1-1.11,2.07,5.43,5.43,0,0,1-1.61,1.43A5.67,5.67,0,0,1,184.51,137.71Z" style="fill:#455a64"></path><path d="M207.51,105.1v23.69a3.72,3.72,0,0,1-1.7,3L198.48,136a1.6,1.6,0,0,1-.51.19,1.3,1.3,0,0,1-.09-.55V111.93a3.78,3.78,0,0,1,1.7-3l7.33-4.22a1.9,1.9,0,0,1,.53-.19A1.45,1.45,0,0,1,207.51,105.1Z" style="fill:#fafafa"></path><path d="M199.88,128.89a1.33,1.33,0,0,1-.09-.59V128a2.19,2.19,0,0,1,.09-.71.66.66,0,0,1,.29-.36l1.73-1v-9.52l-1.8,1.41c-.15.08-.25,0-.32-.29a4.32,4.32,0,0,1-.1-.92.9.9,0,0,1,.35-.69l3.19-2.67a.47.47,0,0,1,.36-.07c.13,0,.19.09.19.2v11.47l1.4-.81q.2-.12.3,0a1.21,1.21,0,0,1,.1.59v.3a2.15,2.15,0,0,1-.1.71.75.75,0,0,1-.3.37l-5,2.88C200,129,199.94,129,199.88,128.89Z" style="fill:#455a64"></path><path d="M223.45,95.89v23.69a3.75,3.75,0,0,1-1.68,3l-7.33,4.24a1.67,1.67,0,0,1-.53.2,1.84,1.84,0,0,1-.07-.55v-23.7a3.71,3.71,0,0,1,1.68-2.94l7.33-4.22a1.67,1.67,0,0,1,.53-.2A1.74,1.74,0,0,1,223.45,95.89Z" style="fill:#fafafa"></path><path d="M216.85,119.16a1.62,1.62,0,0,1-.92,0,.45.45,0,0,1-.34-.47,3.44,3.44,0,0,1,.26-1,1.68,1.68,0,0,1,.45-.79.75.75,0,0,1,.34,0,2.07,2.07,0,0,0,.65,0,2.47,2.47,0,0,0,.81-.32,2.71,2.71,0,0,0,1.07-1.24,4.4,4.4,0,0,0,.42-1.95c0-1.59-.6-2-1.79-1.35l-1.3.76c-.19.1-.32.12-.4,0s-.11-.23-.11-.5l.28-6a1.45,1.45,0,0,1,.15-.65,1.1,1.1,0,0,1,.42-.41l3.87-2.24c.14-.08.24-.06.3,0a1.3,1.3,0,0,1,.09.59v.44a1.55,1.55,0,0,1-.09.59.66.66,0,0,1-.3.34L218,106.68l-.17,3.36.37-.21q3.28-1.89,3.29,2.46a7.38,7.38,0,0,1-1,3.9,6.68,6.68,0,0,1-2.35,2.4A5.26,5.26,0,0,1,216.85,119.16Z" style="fill:#455a64"></path><path d="M182.71,78.73c-8.71-4.64-9.45-11.56-9.45-23.27h-4.91c0,11.71-.74,18.63-9.45,23.27-6.58,3.8-6.58,10,0,13.75s17.24,3.8,23.81,0S189.29,82.53,182.71,78.73Z" style="fill:#D50000"></path><path d="M182.71,78.73c-8.71-4.64-9.45-11.56-9.45-23.27h-4.91c0,11.71-.74,18.63-9.45,23.27-6.58,3.8-6.58,10,0,13.75s17.24,3.8,23.81,0S189.29,82.53,182.71,78.73Z" style="fill:#fff;opacity:0.55"></path><path d="M185.29,90A21.38,21.38,0,0,1,167,93.31,14,14,0,0,1,159.81,89,8.6,8.6,0,0,1,158,81a8.26,8.26,0,0,1,1.56-2.67l-.69.4c-6.58,3.8-6.58,10,0,13.75s17.24,3.8,23.81,0a10.53,10.53,0,0,0,4.17-4A9.35,9.35,0,0,1,185.29,90Z" style="fill:#D50000;opacity:0.2"></path><path d="M173.26,55.46h-4.91c0,2.83,0,5.37-.24,7.68a10,10,0,0,0,2.57.39,9.3,9.3,0,0,0,2.81-.47C173.31,60.78,173.26,58.26,173.26,55.46Z" style="opacity:0.2"></path><circle cx="170.68" cy="52.18" r="9.66" style="fill:#D50000"></circle><path d="M179.63,55.46c-2.39,3.29-7.4,3.63-10.5,2.54A11.54,11.54,0,0,1,164,54.52c-1.32-1.61-2-3.76-1.61-7,0-.14.06-.27.08-.41a9.54,9.54,0,0,0-1.48,5.1,9.63,9.63,0,0,0,18.78,3C179.75,55.28,179.7,55.37,179.63,55.46Z" style="opacity:0.1"></path><path d="M168.44,47.14A4,4,0,0,0,171,49.38a6.83,6.83,0,0,1,2.55,1.71c.49.52.9,1.12,1.43,1.6a2.57,2.57,0,0,0,1.92.78,2.1,2.1,0,0,0,1.56-1.1,3.49,3.49,0,0,0,.4-1.91c-.12-2.93-2.46-5.18-5.07-6.17-1.86-.71-5.12-.52-5.43,2A2.07,2.07,0,0,0,168.44,47.14Z" style="fill:#fff;opacity:0.1"></path><path d="M171.75,44.77a2.15,2.15,0,0,0-1.2.67.94.94,0,0,0,.06,1.27,1.17,1.17,0,0,0,.31.17l3.24,1.44a1.35,1.35,0,0,0,1,.17.86.86,0,0,0,.52-.67,1.63,1.63,0,0,0-.1-.87A3.58,3.58,0,0,0,171.75,44.77Z" style="fill:#fff;opacity:0.1"></path><g id="freepik--gears--inject-63"><g id="freepik--Gear--inject-63"><path d="M120.27,173.81a1.59,1.59,0,0,1,.52.78l.5,2.24a1,1,0,0,0,.58.67l1.76.64a.31.31,0,0,0,.3,0h0l2-1.15h0a.33.33,0,0,0,.15-.32l0-.87,1.29,1.56a.42.42,0,0,0,.55.09h0l2-1.16h0a.31.31,0,0,0,.11-.09l.88-1a.68.68,0,0,0,.07-.79l-1.37-2.18a1.18,1.18,0,0,1-.15-.63l.19,0a.34.34,0,0,0,.27,0h0l2-1.16h0a.33.33,0,0,0,.15-.35l-.35-2.41a1,1,0,0,0-.52-.71l-1.63-.81a1.43,1.43,0,0,1-.61-.7,13.38,13.38,0,0,0-.58-1.35,1,1,0,0,1,.05-.87l.67-1a.78.78,0,0,0,0-.82l-1.67-2.3a.49.49,0,0,0-.63-.14h0l-1.36.79a.67.67,0,0,1-.32-.15,10.17,10.17,0,0,0-1-.8,1.59,1.59,0,0,1-.52-.78l-.5-2.24a1,1,0,0,0-.58-.66l-1.76-.65a.32.32,0,0,0-.29,0h0l-2,1.17h0a.31.31,0,0,0-.15.32l0,.86-1.29-1.55a.43.43,0,0,0-.53-.12h0l-2,1.17h0a.38.38,0,0,0-.13.09l-.88,1a.68.68,0,0,0-.07.79l1.37,2.18a1.21,1.21,0,0,1,.15.64l-.19,0a.39.39,0,0,0-.27,0h0l-2,1.15h0l0,0h0a.31.31,0,0,0-.13.34l.34,2.41a1.09,1.09,0,0,0,.52.72l1.63.81a1.37,1.37,0,0,1,.61.69,14.61,14.61,0,0,0,.58,1.36,1,1,0,0,1,0,.87l-.67,1a.78.78,0,0,0,0,.83l1.66,2.29a.5.5,0,0,0,.7.1l.86-.64a.62.62,0,0,1,.76,0A10.17,10.17,0,0,0,120.27,173.81Zm.23-11.63c2.07.77,4,3.5,4.43,6.1a4.2,4.2,0,0,1-.25,2.37,3,3,0,0,1-.81-.19c-2.07-.76-4.05-3.49-4.43-6.1a4.26,4.26,0,0,1,.25-2.36A3.12,3.12,0,0,1,120.5,162.18Z" style="fill:#D50000"></path><path d="M120.27,173.81a1.59,1.59,0,0,1,.52.78l.5,2.24a1,1,0,0,0,.58.67l1.76.64a.31.31,0,0,0,.3,0h0l2-1.15h0a.33.33,0,0,0,.15-.32l0-.87,1.29,1.56a.42.42,0,0,0,.55.09h0l2-1.16h0a.31.31,0,0,0,.11-.09l.88-1a.68.68,0,0,0,.07-.79l-1.37-2.18a1.18,1.18,0,0,1-.15-.63l.19,0a.34.34,0,0,0,.27,0h0l2-1.16h0a.33.33,0,0,0,.15-.35l-.35-2.41a1,1,0,0,0-.52-.71l-1.63-.81a1.43,1.43,0,0,1-.61-.7,13.38,13.38,0,0,0-.58-1.35,1,1,0,0,1,.05-.87l.67-1a.78.78,0,0,0,0-.82l-1.67-2.3a.49.49,0,0,0-.63-.14h0l-1.36.79a.67.67,0,0,1-.32-.15,10.17,10.17,0,0,0-1-.8,1.59,1.59,0,0,1-.52-.78l-.5-2.24a1,1,0,0,0-.58-.66l-1.76-.65a.32.32,0,0,0-.29,0h0l-2,1.17h0a.31.31,0,0,0-.15.32l0,.86-1.29-1.55a.43.43,0,0,0-.53-.12h0l-2,1.17h0a.38.38,0,0,0-.13.09l-.88,1a.68.68,0,0,0-.07.79l1.37,2.18a1.21,1.21,0,0,1,.15.64l-.19,0a.39.39,0,0,0-.27,0h0l-2,1.15h0l0,0h0a.31.31,0,0,0-.13.34l.34,2.41a1.09,1.09,0,0,0,.52.72l1.63.81a1.37,1.37,0,0,1,.61.69,14.61,14.61,0,0,0,.58,1.36,1,1,0,0,1,0,.87l-.67,1a.78.78,0,0,0,0,.83l1.66,2.29a.5.5,0,0,0,.7.1l.86-.64a.62.62,0,0,1,.76,0A10.17,10.17,0,0,0,120.27,173.81Zm.23-11.63c2.07.77,4,3.5,4.43,6.1a4.2,4.2,0,0,1-.25,2.37,3,3,0,0,1-.81-.19c-2.07-.76-4.05-3.49-4.43-6.1a4.26,4.26,0,0,1,.25-2.36A3.12,3.12,0,0,1,120.5,162.18Z" style="fill:#fff;opacity:0.2"></path><path d="M117.94,158.52a.49.49,0,0,0,.47-.51l-.07-1.16-1.29-1.55a.42.42,0,0,0-.53-.12l-2,1.15a.42.42,0,0,1,.51.13l1.59,1.91a.84.84,0,0,0,.8.23A2.72,2.72,0,0,1,117.94,158.52Zm-5.46,3.63a.4.4,0,0,1,.27,0l1.46.35a.44.44,0,0,0,.54-.39,5,5,0,0,1,.16-.81.75.75,0,0,0,0-.26l-.19,0a.39.39,0,0,0-.27,0h0Z" style="opacity:0.1"></path><path d="M117.44,165.52c-.33-2.25.65-3.67,2.25-3.52a4.26,4.26,0,0,0-.25,2.36c.38,2.61,2.36,5.34,4.43,6.1a3,3,0,0,0,.81.19,2.06,2.06,0,0,1-2.82,1C119.79,170.86,117.81,168.13,117.44,165.52Z" style="opacity:0.1"></path><path d="M128.29,163.63a.85.85,0,0,1,.11-.34l.67-1a.78.78,0,0,0,.09-.53l-2,1.16a.78.78,0,0,1-.09.53l-.67,1a.72.72,0,0,0-.11.34Zm3.6,6.86a.33.33,0,0,0,.15-.35l-.35-2.41a1,1,0,0,0-.28-.52l-2,1.16a1,1,0,0,1,.27.53l.35,2.4a.33.33,0,0,1-.15.35h0ZM123.58,158l-.5-2.21a1,1,0,0,0-.29-.47l-2,1.16a1,1,0,0,1,.28.47l.49,2.21Zm6.3,18.27a.31.31,0,0,0,.11-.09l.88-1a.7.7,0,0,0,.08-.79l-1.38-2.18a1,1,0,0,1-.13-.39l-2,1.16a.9.9,0,0,0,.13.39l1.38,2.18a.69.69,0,0,1-.07.79l-.89,1a.31.31,0,0,1-.11.09Zm-3.94.69h0a.33.33,0,0,0,.15-.32l0-.87-.29-.36a.88.88,0,0,0-.81-.23,3.86,3.86,0,0,1-.51.09l-.13,0-.08,0a.53.53,0,0,0-.14.11.56.56,0,0,0-.11.2.61.61,0,0,0,0,.14l.12,2a.53.53,0,0,1,0,.13.32.32,0,0,1-.07.13l-.06.06Z" style="fill:#D50000"></path><path d="M128.29,163.63a.85.85,0,0,1,.11-.34l.67-1a.78.78,0,0,0,.09-.53l-2,1.16a.78.78,0,0,1-.09.53l-.67,1a.72.72,0,0,0-.11.34Zm3.6,6.86a.33.33,0,0,0,.15-.35l-.35-2.41a1,1,0,0,0-.28-.52l-2,1.16a1,1,0,0,1,.27.53l.35,2.4a.33.33,0,0,1-.15.35h0ZM123.58,158l-.5-2.21a1,1,0,0,0-.29-.47l-2,1.16a1,1,0,0,1,.28.47l.49,2.21Zm6.3,18.27a.31.31,0,0,0,.11-.09l.88-1a.7.7,0,0,0,.08-.79l-1.38-2.18a1,1,0,0,1-.13-.39l-2,1.16a.9.9,0,0,0,.13.39l1.38,2.18a.69.69,0,0,1-.07.79l-.89,1a.31.31,0,0,1-.11.09Zm-3.94.69h0a.33.33,0,0,0,.15-.32l0-.87-.29-.36a.88.88,0,0,0-.81-.23,3.86,3.86,0,0,1-.51.09l-.13,0-.08,0a.53.53,0,0,0-.14.11.56.56,0,0,0-.11.2.61.61,0,0,0,0,.14l.12,2a.53.53,0,0,1,0,.13.32.32,0,0,1-.07.13l-.06.06Z" style="fill:#fff;opacity:0.7000000000000001"></path><path d="M121.87,177.5l1.76.64a.3.3,0,0,0,.44-.32l-.12-2a.48.48,0,0,1,.47-.51,4.34,4.34,0,0,0,.52-.09.84.84,0,0,1,.79.23l1.59,1.92a.42.42,0,0,0,.66,0l.88-1a.7.7,0,0,0,.08-.79l-1.38-2.18a1.22,1.22,0,0,1-.11-.9,6.08,6.08,0,0,0,.17-.81.43.43,0,0,1,.54-.38l1.45.34a.32.32,0,0,0,.42-.38l-.35-2.4a1,1,0,0,0-.52-.72l-1.63-.81a1.43,1.43,0,0,1-.61-.7q-.26-.69-.57-1.35a1,1,0,0,1,0-.87l.67-1a.78.78,0,0,0,0-.82l-1.67-2.3a.48.48,0,0,0-.69-.1l-.86.65a.63.63,0,0,1-.77-.05,10.17,10.17,0,0,0-1-.8,1.59,1.59,0,0,1-.52-.78l-.5-2.24a1,1,0,0,0-.58-.66l-1.76-.65a.31.31,0,0,0-.44.33l.12,2a.49.49,0,0,1-.47.51,2.72,2.72,0,0,0-.51.08.84.84,0,0,1-.8-.23L115,156.46a.42.42,0,0,0-.66,0l-.88,1a.68.68,0,0,0-.07.79l1.38,2.18a1.28,1.28,0,0,1,.1.9,6.83,6.83,0,0,0-.16.81.43.43,0,0,1-.54.38l-1.46-.34a.31.31,0,0,0-.41.38l.34,2.41a1.09,1.09,0,0,0,.52.72l1.63.81a1.37,1.37,0,0,1,.61.69,14.61,14.61,0,0,0,.58,1.36,1,1,0,0,1,0,.87l-.67,1a.78.78,0,0,0,0,.83l1.66,2.29a.5.5,0,0,0,.7.1l.86-.64a.62.62,0,0,1,.76,0,10.17,10.17,0,0,0,1,.8,1.59,1.59,0,0,1,.52.78l.5,2.24A1,1,0,0,0,121.87,177.5Zm-4.44-12c-.37-2.6,1-4.1,3.07-3.34s4,3.5,4.43,6.1-1,4.1-3.07,3.34S117.81,168.13,117.43,165.52Z" style="fill:#D50000"></path><g style="opacity:0.55"><path d="M121.87,177.5l1.76.64a.3.3,0,0,0,.44-.32l-.12-2a.48.48,0,0,1,.47-.51,4.34,4.34,0,0,0,.52-.09.84.84,0,0,1,.79.23l1.59,1.92a.42.42,0,0,0,.66,0l.88-1a.7.7,0,0,0,.08-.79l-1.38-2.18a1.22,1.22,0,0,1-.11-.9,6.08,6.08,0,0,0,.17-.81.43.43,0,0,1,.54-.38l1.45.34a.32.32,0,0,0,.42-.38l-.35-2.4a1,1,0,0,0-.52-.72l-1.63-.81a1.43,1.43,0,0,1-.61-.7q-.26-.69-.57-1.35a1,1,0,0,1,0-.87l.67-1a.78.78,0,0,0,0-.82l-1.67-2.3a.48.48,0,0,0-.69-.1l-.86.65a.63.63,0,0,1-.77-.05,10.17,10.17,0,0,0-1-.8,1.59,1.59,0,0,1-.52-.78l-.5-2.24a1,1,0,0,0-.58-.66l-1.76-.65a.31.31,0,0,0-.44.33l.12,2a.49.49,0,0,1-.47.51,2.72,2.72,0,0,0-.51.08.84.84,0,0,1-.8-.23L115,156.46a.42.42,0,0,0-.66,0l-.88,1a.68.68,0,0,0-.07.79l1.38,2.18a1.28,1.28,0,0,1,.1.9,6.83,6.83,0,0,0-.16.81.43.43,0,0,1-.54.38l-1.46-.34a.31.31,0,0,0-.41.38l.34,2.41a1.09,1.09,0,0,0,.52.72l1.63.81a1.37,1.37,0,0,1,.61.69,14.61,14.61,0,0,0,.58,1.36,1,1,0,0,1,0,.87l-.67,1a.78.78,0,0,0,0,.83l1.66,2.29a.5.5,0,0,0,.7.1l.86-.64a.62.62,0,0,1,.76,0,10.17,10.17,0,0,0,1,.8,1.59,1.59,0,0,1,.52.78l.5,2.24A1,1,0,0,0,121.87,177.5Zm-4.44-12c-.37-2.6,1-4.1,3.07-3.34s4,3.5,4.43,6.1-1,4.1-3.07,3.34S117.81,168.13,117.43,165.52Z" style="fill:#fff"></path><path d="M123.78,178.31l-.2,0-1.76-.65a1.17,1.17,0,0,1-.66-.76l-.51-2.25a1.43,1.43,0,0,0-.46-.69c-.33-.25-.66-.52-1-.81a.45.45,0,0,0-.58,0l-.86.65a.68.68,0,0,1-.48.12.65.65,0,0,1-.41-.26l-1.67-2.29a1,1,0,0,1,0-1l.66-1a.85.85,0,0,0,0-.73c-.21-.45-.41-.91-.58-1.37a1.31,1.31,0,0,0-.54-.62l-1.63-.81a1.2,1.2,0,0,1-.6-.82l-.34-2.41a.49.49,0,0,1,.13-.44.52.52,0,0,1,.46-.09l1.45.34a.29.29,0,0,0,.24,0,.35.35,0,0,0,.13-.23,7.17,7.17,0,0,1,.17-.83,1.09,1.09,0,0,0-.09-.78l-1.38-2.18a.81.81,0,0,1,.09-1l.88-1a.6.6,0,0,1,.44-.2.59.59,0,0,1,.43.22l1.59,1.91a.68.68,0,0,0,.65.18,3.05,3.05,0,0,1,.54-.08.35.35,0,0,0,.34-.37l-.12-2a.48.48,0,0,1,.18-.42.44.44,0,0,1,.45,0l1.76.64a1.2,1.2,0,0,1,.67.77l.5,2.24a1.41,1.41,0,0,0,.46.7,10.25,10.25,0,0,1,1,.81.47.47,0,0,0,.58,0l.86-.64a.65.65,0,0,1,.9.13l1.66,2.29a.93.93,0,0,1,0,1l-.67,1a.87.87,0,0,0,0,.74,13.54,13.54,0,0,1,.58,1.36,1.26,1.26,0,0,0,.54.62l1.63.81a1.22,1.22,0,0,1,.6.83l.34,2.4a.48.48,0,0,1-.13.44.51.51,0,0,1-.45.1l-1.46-.34a.26.26,0,0,0-.23,0,.36.36,0,0,0-.14.23,5.3,5.3,0,0,1-.17.83,1.12,1.12,0,0,0,.1.79l1.37,2.17a.83.83,0,0,1-.08,1l-.89,1a.58.58,0,0,1-.44.19.59.59,0,0,1-.43-.21l-1.59-1.92a.68.68,0,0,0-.65-.18,4.89,4.89,0,0,1-.53.09.34.34,0,0,0-.35.36l.12,2a.47.47,0,0,1-.17.42A.4.4,0,0,1,123.78,178.31Zm-4.89-5.59a.72.72,0,0,1,.51.19,11.35,11.35,0,0,0,.95.79,1.72,1.72,0,0,1,.58.86l.5,2.24a.87.87,0,0,0,.49.57l1.76.64a.21.21,0,0,0,.19,0,.23.23,0,0,0,.06-.18l-.12-2a.63.63,0,0,1,.6-.66,3.85,3.85,0,0,0,.49-.08,1,1,0,0,1,.94.27l1.59,1.92a.29.29,0,0,0,.22.11h0a.32.32,0,0,0,.22-.1l.88-1a.56.56,0,0,0,.06-.63l-1.38-2.17a1.43,1.43,0,0,1-.13-1,5.77,5.77,0,0,0,.17-.79.6.6,0,0,1,.25-.42.56.56,0,0,1,.46-.08l1.45.34a.22.22,0,0,0,.2,0,.23.23,0,0,0,0-.19l-.35-2.4a.93.93,0,0,0-.44-.62l-1.63-.81a1.56,1.56,0,0,1-.68-.77c-.17-.45-.36-.9-.57-1.34a1.15,1.15,0,0,1,0-1l.67-1a.65.65,0,0,0,0-.67l-1.66-2.29a.39.39,0,0,0-.23-.15.42.42,0,0,0-.27.07l-.86.65a.75.75,0,0,1-.94-.06,11.35,11.35,0,0,0-.95-.79,1.64,1.64,0,0,1-.57-.86l-.51-2.24a.86.86,0,0,0-.49-.56l-1.75-.65a.2.2,0,0,0-.2,0,.22.22,0,0,0-.06.18l.12,2a.64.64,0,0,1-.6.66,2.64,2.64,0,0,0-.49.08,1,1,0,0,1-.94-.28l-1.59-1.91a.32.32,0,0,0-.22-.12.31.31,0,0,0-.22.11l-.89,1a.54.54,0,0,0,0,.62l1.37,2.18a1.34,1.34,0,0,1,.13,1,5,5,0,0,0-.16.79.6.6,0,0,1-.26.42.55.55,0,0,1-.45.08l-1.46-.34a.22.22,0,0,0-.2,0,.2.2,0,0,0,0,.19l.34,2.41a.92.92,0,0,0,.44.61l1.64.81a1.62,1.62,0,0,1,.68.78,14.07,14.07,0,0,0,.56,1.34,1.1,1.1,0,0,1,0,1l-.67,1a.63.63,0,0,0,0,.66l1.66,2.3a.37.37,0,0,0,.24.14.35.35,0,0,0,.26-.07l.86-.65A.75.75,0,0,1,118.89,172.72Zm4-.76a3.12,3.12,0,0,1-1.07-.21c-2.11-.78-4.13-3.56-4.51-6.21h0a3.45,3.45,0,0,1,.87-3.25,2.38,2.38,0,0,1,2.38-.24c2.11.78,4.14,3.57,4.52,6.21a3.44,3.44,0,0,1-.88,3.25A2,2,0,0,1,122.88,172Zm-5.31-6.46c.37,2.56,2.31,5.24,4.34,6a2.11,2.11,0,0,0,2.11-.19,3.22,3.22,0,0,0,.77-3c-.37-2.55-2.31-5.24-4.33-6a2.09,2.09,0,0,0-2.11.19,3.17,3.17,0,0,0-.78,3Z" style="fill:#fff"></path></g></g><g id="freepik--gear--inject-63"><path d="M135.57,165.48h0L138.1,164h0a.28.28,0,0,0,.13-.23l.19-1.89a.76.76,0,0,1,.33.25l2.49,3.75a.46.46,0,0,0,.6.14l2.17-1.25h0l2.51-1.46a.45.45,0,0,0,.18-.59l-2-4a.78.78,0,0,1-.05-.41l1.74.79a.29.29,0,0,0,.26,0h0l2.53-1.47h0a.28.28,0,0,0,.12-.25v-3.89a.93.93,0,0,0-.35-.66l-3.07-2.16a1.27,1.27,0,0,1-.43-.66,21.53,21.53,0,0,0-.78-2.61.64.64,0,0,1,.16-.66l1.74-1.5a.53.53,0,0,0,.11-.64l-2.48-4.29a.52.52,0,0,0-.61-.22l-2.16.75a.65.65,0,0,1-.66-.18,20.9,20.9,0,0,0-1.87-2,1.2,1.2,0,0,1-.35-.7l-.34-3.74a.9.9,0,0,0-.4-.63l-3.37-2a.27.27,0,0,0-.27,0h0l-2.53,1.47h0a.28.28,0,0,0-.13.23l-.19,1.89a.82.82,0,0,1-.34-.26l-2.49-3.74a.43.43,0,0,0-.59-.14l-3,1.76h0l-1.66,1a.43.43,0,0,0-.17.58l2,4a.71.71,0,0,1,.06.41l-1.74-.78a.29.29,0,0,0-.27,0h0l-2.52,1.47h0a.29.29,0,0,0-.12.25v3.89a.9.9,0,0,0,.34.66l3.08,2.17a1.25,1.25,0,0,1,.43.65,21,21,0,0,0,.78,2.61.64.64,0,0,1-.17.67l-1.73,1.5a.51.51,0,0,0-.11.63l2.48,4.29a.51.51,0,0,0,.6.23l2.16-.76a.67.67,0,0,1,.67.19,19.58,19.58,0,0,0,1.87,2,1.26,1.26,0,0,1,.35.7l.34,3.75a.92.92,0,0,0,.4.63l3.37,1.94A.25.25,0,0,0,135.57,165.48Zm-2-22.77a12.6,12.6,0,0,1,5.69,9.86,4.55,4.55,0,0,1-1.05,3.2,5.24,5.24,0,0,1-3-.87,12.57,12.57,0,0,1-5.69-9.86,4.35,4.35,0,0,1,.9-3A4.62,4.62,0,0,1,133.61,142.71Z" style="fill:#D50000"></path><g style="opacity:0.2"><path d="M135.57,165.48h0L138.1,164h0a.28.28,0,0,0,.13-.23l.19-1.89a.76.76,0,0,1,.33.25l2.49,3.75a.46.46,0,0,0,.6.14l2.17-1.25h0l2.51-1.46a.45.45,0,0,0,.18-.59l-2-4a.78.78,0,0,1-.05-.41l1.74.79a.29.29,0,0,0,.26,0h0l2.53-1.47h0a.28.28,0,0,0,.12-.25v-3.89a.93.93,0,0,0-.35-.66l-3.07-2.16a1.27,1.27,0,0,1-.43-.66,21.53,21.53,0,0,0-.78-2.61.64.64,0,0,1,.16-.66l1.74-1.5a.53.53,0,0,0,.11-.64l-2.48-4.29a.52.52,0,0,0-.61-.22l-2.16.75a.65.65,0,0,1-.66-.18,20.9,20.9,0,0,0-1.87-2,1.2,1.2,0,0,1-.35-.7l-.34-3.74a.9.9,0,0,0-.4-.63l-3.37-2a.27.27,0,0,0-.27,0h0l-2.53,1.47h0a.28.28,0,0,0-.13.23l-.19,1.89a.82.82,0,0,1-.34-.26l-2.49-3.74a.43.43,0,0,0-.59-.14l-3,1.76h0l-1.66,1a.43.43,0,0,0-.17.58l2,4a.71.71,0,0,1,.06.41l-1.74-.78a.29.29,0,0,0-.27,0h0l-2.52,1.47h0a.29.29,0,0,0-.12.25v3.89a.9.9,0,0,0,.34.66l3.08,2.17a1.25,1.25,0,0,1,.43.65,21,21,0,0,0,.78,2.61.64.64,0,0,1-.17.67l-1.73,1.5a.51.51,0,0,0-.11.63l2.48,4.29a.51.51,0,0,0,.6.23l2.16-.76a.67.67,0,0,1,.67.19,19.58,19.58,0,0,0,1.87,2,1.26,1.26,0,0,1,.35.7l.34,3.75a.92.92,0,0,0,.4.63l3.37,1.94A.25.25,0,0,0,135.57,165.48Zm-2-22.77a12.6,12.6,0,0,1,5.69,9.86,4.55,4.55,0,0,1-1.05,3.2,5.24,5.24,0,0,1-3-.87,12.57,12.57,0,0,1-5.69-9.86,4.35,4.35,0,0,1,.9-3A4.62,4.62,0,0,1,133.61,142.71Z" style="fill:#fff"></path></g><path d="M146.54,163.32a.47.47,0,0,0,.17-.59l-2-4a.71.71,0,0,1-.05-.22L142.13,160a.51.51,0,0,0,.06.22l2,4a.48.48,0,0,1-.13.56Zm-8.44.7h0a.27.27,0,0,0,.13-.22l.19-1.89a.77.77,0,0,0-.32-.07,6.38,6.38,0,0,1-1.54-.15h-.08a.28.28,0,0,0-.18,0h-.06l-.09.06a.29.29,0,0,0-.1.16.19.19,0,0,0,0,.08l-.33,3.28s0,.05,0,.07a.19.19,0,0,1-.05.09.19.19,0,0,1-.07.06h0Zm11.09-6.41a.26.26,0,0,0,.12-.25v-3.89a.91.91,0,0,0-.19-.49l-2.52,1.46a.9.9,0,0,1,.18.5v3.89a.27.27,0,0,1-.1.24Zm-10.53-19.33a1,1,0,0,1-.1-.32l-.34-3.75a.88.88,0,0,0-.1-.3l-2.52,1.47a.67.67,0,0,1,.1.29l.33,3.75a1.12,1.12,0,0,0,.1.33Zm8,6.8a.55.55,0,0,0,0-.5l-2.48-4.29a.48.48,0,0,0-.24-.2l-2.53,1.46a.51.51,0,0,1,.25.21l2.47,4.29a.52.52,0,0,1,0,.47Z" style="fill:#D50000"></path><g style="opacity:0.7000000000000001"><path d="M146.54,163.32a.47.47,0,0,0,.17-.59l-2-4a.71.71,0,0,1-.05-.22L142.13,160a.51.51,0,0,0,.06.22l2,4a.48.48,0,0,1-.13.56Zm-8.44.7h0a.27.27,0,0,0,.13-.22l.19-1.89a.77.77,0,0,0-.32-.07,6.38,6.38,0,0,1-1.54-.15h-.08a.28.28,0,0,0-.18,0h-.06l-.09.06a.29.29,0,0,0-.1.16.19.19,0,0,0,0,.08l-.33,3.28s0,.05,0,.07a.19.19,0,0,1-.05.09.19.19,0,0,1-.07.06h0Zm11.09-6.41a.26.26,0,0,0,.12-.25v-3.89a.91.91,0,0,0-.19-.49l-2.52,1.46a.9.9,0,0,1,.18.5v3.89a.27.27,0,0,1-.1.24Zm-10.53-19.33a1,1,0,0,1-.1-.32l-.34-3.75a.88.88,0,0,0-.1-.3l-2.52,1.47a.67.67,0,0,1,.1.29l.33,3.75a1.12,1.12,0,0,0,.1.33Zm8,6.8a.55.55,0,0,0,0-.5l-2.48-4.29a.48.48,0,0,0-.24-.2l-2.53,1.46a.51.51,0,0,1,.25.21l2.47,4.29a.52.52,0,0,1,0,.47Z" style="fill:#fff"></path></g><path d="M131.93,163.52l3.37,1.94a.24.24,0,0,0,.4-.2L136,162a.35.35,0,0,1,.45-.31,7.12,7.12,0,0,0,1.62.16.81.81,0,0,1,.65.32l2.49,3.75a.46.46,0,0,0,.6.14l2.17-1.25a.46.46,0,0,0,.18-.59l-2-4a.85.85,0,0,1,0-.73,6.28,6.28,0,0,0,.67-1.48.35.35,0,0,1,.5-.23l3,1.35a.25.25,0,0,0,.38-.25v-3.89a.9.9,0,0,0-.34-.66l-3.08-2.17a1.21,1.21,0,0,1-.43-.65,19.88,19.88,0,0,0-.78-2.61.64.64,0,0,1,.17-.67l1.74-1.49a.53.53,0,0,0,.1-.64l-2.47-4.29a.55.55,0,0,0-.61-.23l-2.16.76a.63.63,0,0,1-.66-.19,20.8,20.8,0,0,0-1.88-2,1.33,1.33,0,0,1-.35-.7l-.33-3.75a.88.88,0,0,0-.4-.62l-3.37-2a.25.25,0,0,0-.41.21l-.33,3.27a.36.36,0,0,1-.45.32,6.57,6.57,0,0,0-1.62-.17.82.82,0,0,1-.65-.32L126,132.66a.47.47,0,0,0-.6-.14l-2.17,1.26a.43.43,0,0,0-.17.58l2,4a.82.82,0,0,1,0,.73,6.36,6.36,0,0,0-.67,1.49.36.36,0,0,1-.5.23l-3-1.35a.25.25,0,0,0-.38.24v3.89a.9.9,0,0,0,.34.66l3.08,2.17a1.25,1.25,0,0,1,.43.65,21,21,0,0,0,.78,2.61.64.64,0,0,1-.17.67l-1.73,1.5a.51.51,0,0,0-.11.63l2.48,4.29a.51.51,0,0,0,.6.23l2.17-.76a.66.66,0,0,1,.66.19,19.58,19.58,0,0,0,1.87,2,1.26,1.26,0,0,1,.35.7l.34,3.75A.92.92,0,0,0,131.93,163.52Zm-4-17.52c0-3.63,2.55-5.1,5.69-3.29a12.6,12.6,0,0,1,5.69,9.86c0,3.63-2.55,5.1-5.69,3.28A12.57,12.57,0,0,1,127.92,146Z" style="fill:#D50000"></path><g style="opacity:0.55"><path d="M131.93,163.52l3.37,1.94a.24.24,0,0,0,.4-.2L136,162a.35.35,0,0,1,.45-.31,7.12,7.12,0,0,0,1.62.16.81.81,0,0,1,.65.32l2.49,3.75a.46.46,0,0,0,.6.14l2.17-1.25a.46.46,0,0,0,.18-.59l-2-4a.85.85,0,0,1,0-.73,6.28,6.28,0,0,0,.67-1.48.35.35,0,0,1,.5-.23l3,1.35a.25.25,0,0,0,.38-.25v-3.89a.9.9,0,0,0-.34-.66l-3.08-2.17a1.21,1.21,0,0,1-.43-.65,19.88,19.88,0,0,0-.78-2.61.64.64,0,0,1,.17-.67l1.74-1.49a.53.53,0,0,0,.1-.64l-2.47-4.29a.55.55,0,0,0-.61-.23l-2.16.76a.63.63,0,0,1-.66-.19,20.8,20.8,0,0,0-1.88-2,1.33,1.33,0,0,1-.35-.7l-.33-3.75a.88.88,0,0,0-.4-.62l-3.37-2a.25.25,0,0,0-.41.21l-.33,3.27a.36.36,0,0,1-.45.32,6.57,6.57,0,0,0-1.62-.17.82.82,0,0,1-.65-.32L126,132.66a.47.47,0,0,0-.6-.14l-2.17,1.26a.43.43,0,0,0-.17.58l2,4a.82.82,0,0,1,0,.73,6.36,6.36,0,0,0-.67,1.49.36.36,0,0,1-.5.23l-3-1.35a.25.25,0,0,0-.38.24v3.89a.9.9,0,0,0,.34.66l3.08,2.17a1.25,1.25,0,0,1,.43.65,21,21,0,0,0,.78,2.61.64.64,0,0,1-.17.67l-1.73,1.5a.51.51,0,0,0-.11.63l2.48,4.29a.51.51,0,0,0,.6.23l2.17-.76a.66.66,0,0,1,.66.19,19.58,19.58,0,0,0,1.87,2,1.26,1.26,0,0,1,.35.7l.34,3.75A.92.92,0,0,0,131.93,163.52Zm-4-17.52c0-3.63,2.55-5.1,5.69-3.29a12.6,12.6,0,0,1,5.69,9.86c0,3.63-2.55,5.1-5.69,3.28A12.57,12.57,0,0,1,127.92,146Z" style="fill:#fff"></path><path d="M141.62,166.24a.61.61,0,0,1-.49-.26l-2.49-3.75a.8.8,0,0,0-.54-.26,6.86,6.86,0,0,1-1.65-.17.25.25,0,0,0-.19,0,.22.22,0,0,0-.09.16l-.33,3.27a.41.41,0,0,1-.21.34.37.37,0,0,1-.4,0l-3.37-1.94a1,1,0,0,1-.47-.74l-.34-3.75a1.09,1.09,0,0,0-.31-.6,20,20,0,0,1-1.88-2,.51.51,0,0,0-.51-.14l-2.16.75a.68.68,0,0,1-.78-.29l-2.47-4.29a.66.66,0,0,1,.14-.81l1.73-1.5a.5.5,0,0,0,.13-.51,20.69,20.69,0,0,1-.79-2.63,1.07,1.07,0,0,0-.37-.56l-3.08-2.17a1.07,1.07,0,0,1-.4-.78v-3.89a.39.39,0,0,1,.18-.36.4.4,0,0,1,.4,0l3,1.35a.19.19,0,0,0,.18,0,.25.25,0,0,0,.13-.15,6.49,6.49,0,0,1,.68-1.51.71.71,0,0,0,0-.6l-2-4a.61.61,0,0,1,.23-.77l2.17-1.25a.6.6,0,0,1,.79.19l2.49,3.74a.66.66,0,0,0,.52.26h.16a7.11,7.11,0,0,1,1.5.17.24.24,0,0,0,.2,0,.19.19,0,0,0,.08-.16l.33-3.28a.45.45,0,0,1,.21-.34.43.43,0,0,1,.41,0l3.37,1.94a1.12,1.12,0,0,1,.47.74l.33,3.75a1.15,1.15,0,0,0,.31.61,21.05,21.05,0,0,1,1.88,2,.52.52,0,0,0,.51.15l2.16-.76a.67.67,0,0,1,.78.29l2.47,4.29a.65.65,0,0,1-.13.81l-1.74,1.5a.51.51,0,0,0-.13.51,21.18,21.18,0,0,1,.79,2.63,1.06,1.06,0,0,0,.37.57l3.08,2.16a1.05,1.05,0,0,1,.4.78v3.89a.44.44,0,0,1-.17.37.45.45,0,0,1-.41,0l-3-1.35a.19.19,0,0,0-.18,0,.23.23,0,0,0-.12.15,7.26,7.26,0,0,1-.69,1.52.72.72,0,0,0,0,.59l2,4a.59.59,0,0,1-.23.77l-2.17,1.25A.6.6,0,0,1,141.62,166.24Zm-3.5-4.55a1,1,0,0,1,.75.39l2.49,3.74a.32.32,0,0,0,.41.1l2.17-1.25a.32.32,0,0,0,.12-.41l-2-4a1,1,0,0,1,.05-.86,6.41,6.41,0,0,0,.66-1.45.52.52,0,0,1,.28-.33.53.53,0,0,1,.41,0l3,1.35a.12.12,0,0,0,.13,0,.16.16,0,0,0,0-.13v-3.89a.8.8,0,0,0-.28-.55l-3.08-2.16a1.45,1.45,0,0,1-.49-.74,20.48,20.48,0,0,0-.77-2.59.78.78,0,0,1,.21-.82l1.73-1.5a.38.38,0,0,0,.08-.46l-2.47-4.29a.39.39,0,0,0-.44-.16l-2.17.75a.77.77,0,0,1-.81-.23,20.69,20.69,0,0,0-1.86-2,1.4,1.4,0,0,1-.4-.79l-.33-3.74a.77.77,0,0,0-.33-.52l-3.37-1.95c-.06,0-.11,0-.14,0a.17.17,0,0,0-.06.12l-.33,3.27a.46.46,0,0,1-.2.36.48.48,0,0,1-.42.08,6.76,6.76,0,0,0-1.59-.16,1,1,0,0,1-.77-.38l-2.49-3.75a.31.31,0,0,0-.41-.09l-2.17,1.25a.32.32,0,0,0-.12.4l2,4a1,1,0,0,1,0,.86,6.7,6.7,0,0,0-.66,1.46.47.47,0,0,1-.28.32.46.46,0,0,1-.41,0l-3-1.35c-.06,0-.11,0-.14,0a.16.16,0,0,0,0,.13v3.89a.78.78,0,0,0,.28.55l3.08,2.17a1.36,1.36,0,0,1,.49.73,20.62,20.62,0,0,0,.77,2.6.79.79,0,0,1-.21.82L123.26,152a.38.38,0,0,0-.08.46l2.48,4.29a.38.38,0,0,0,.44.17l2.16-.76a.79.79,0,0,1,.81.23,20.69,20.69,0,0,0,1.86,2,1.43,1.43,0,0,1,.4.79l.34,3.75a.78.78,0,0,0,.33.52l3.37,1.94a.13.13,0,0,0,.13,0,.13.13,0,0,0,.06-.12l.33-3.27a.52.52,0,0,1,.2-.36.52.52,0,0,1,.42-.08,6.27,6.27,0,0,0,1.59.16Zm-2-4.92a5.33,5.33,0,0,1-2.61-.8,12.73,12.73,0,0,1-5.76-10,4.14,4.14,0,0,1,1.74-3.81c1.12-.65,2.6-.5,4.16.4a12.74,12.74,0,0,1,5.76,10c0,1.8-.61,3.16-1.73,3.8A3.07,3.07,0,0,1,136.15,156.77Zm-5.08-14.7a2.79,2.79,0,0,0-1.41.36,3.88,3.88,0,0,0-1.6,3.57,12.44,12.44,0,0,0,5.62,9.73,3.33,3.33,0,0,0,5.48-3.16,12.45,12.45,0,0,0-5.62-9.74A5.05,5.05,0,0,0,131.07,142.07Z" style="fill:#fff"></path></g></g></g><path d="M362.67,252.33a3.67,3.67,0,0,0-2.15-3,11.5,11.5,0,0,0-10.38,0,3.65,3.65,0,0,0-2.15,3v3.82a3.63,3.63,0,0,0,2.15,3,11.44,11.44,0,0,0,10.38,0,3.65,3.65,0,0,0,2.15-3Z" style="fill:#263238"></path><path d="M350.14,249.33a3.17,3.17,0,0,0,0,6,11.5,11.5,0,0,0,10.38,0,3.17,3.17,0,0,0,0-6A11.5,11.5,0,0,0,350.14,249.33Z" style="fill:#455a64"></path><path d="M365.49,201a.62.62,0,0,0-.24-.58,2,2,0,0,0-1.72-.4.62.62,0,0,0-.47.42c0,.11-11.8,50.78-11.83,50.89a.64.64,0,0,0,.24.58,2,2,0,0,0,1.72.4.65.65,0,0,0,.48-.42C353.69,251.74,365.47,201.07,365.49,201Z" style="fill:#263238"></path><path d="M363.53,200a.62.62,0,0,0-.47.42.6.6,0,0,0,.24.58,2,2,0,0,0,1.72.4.63.63,0,0,0,.47-.42.62.62,0,0,0-.24-.58A2,2,0,0,0,363.53,200Z" style="fill:#455a64"></path><path d="M374.83,219.91a.61.61,0,0,0-.11-.61,2,2,0,0,0-1.59-.78.61.61,0,0,0-.55.3l-15.91,32.65a.63.63,0,0,0,.11.62,2,2,0,0,0,1.59.77.61.61,0,0,0,.55-.3Z" style="fill:#263238"></path><path d="M373.13,218.52a.61.61,0,0,0-.55.3.64.64,0,0,0,.1.62,2,2,0,0,0,1.59.77.64.64,0,0,0,.56-.3.61.61,0,0,0-.11-.61A2,2,0,0,0,373.13,218.52Z" style="fill:#455a64"></path><circle cx="364.86" cy="198.06" r="6.09" style="fill:#D50000"></circle><path d="M370.51,200.14c-1.51,2.07-4.67,2.28-6.62,1.59a7.17,7.17,0,0,1-3.22-2.19,5.6,5.6,0,0,1-1-4.43c0-.09,0-.18,0-.26a6,6,0,0,0-.94,3.21,6.07,6.07,0,0,0,11.85,1.9Z" style="opacity:0.1"></path><path d="M363.45,194.88a2.52,2.52,0,0,0,1.63,1.42,4.37,4.37,0,0,1,1.61,1.07c.31.33.56.71.9,1a1.64,1.64,0,0,0,1.21.49,1.37,1.37,0,0,0,1-.69A2.32,2.32,0,0,0,370,197a4.66,4.66,0,0,0-3.2-3.9c-1.18-.45-3.23-.32-3.43,1.28A1.27,1.27,0,0,0,363.45,194.88Z" style="fill:#fff;opacity:0.1"></path><path d="M365.54,193.39a1.34,1.34,0,0,0-.76.42.6.6,0,0,0,0,.8.72.72,0,0,0,.19.11l2.05.91a.91.91,0,0,0,.64.11.59.59,0,0,0,.33-.42,1.13,1.13,0,0,0-.07-.55A2.26,2.26,0,0,0,365.54,193.39Z" style="fill:#fff;opacity:0.1"></path><path d="M381.6,216.75a6.09,6.09,0,1,1-6.09-6.09A6.09,6.09,0,0,1,381.6,216.75Z" style="fill:#D50000"></path><path d="M381.16,218.82c-1.51,2.08-4.67,2.29-6.63,1.6a7.3,7.3,0,0,1-3.21-2.19,5.62,5.62,0,0,1-1-4.44,2.38,2.38,0,0,1,.05-.26,6,6,0,0,0-.94,3.22,6.07,6.07,0,0,0,11.85,1.9Z" style="opacity:0.1"></path><path d="M374.1,213.57a2.55,2.55,0,0,0,1.63,1.42,4.34,4.34,0,0,1,1.6,1.07c.31.33.57.71.9,1a1.59,1.59,0,0,0,1.22.49,1.32,1.32,0,0,0,1-.69,2.28,2.28,0,0,0,.26-1.21,4.65,4.65,0,0,0-3.21-3.89c-1.17-.45-3.23-.33-3.42,1.27A1.16,1.16,0,0,0,374.1,213.57Z" style="fill:#fff;opacity:0.1"></path><path d="M376.19,212.07a1.35,1.35,0,0,0-.76.43.6.6,0,0,0,0,.8.78.78,0,0,0,.2.11l2,.91a.83.83,0,0,0,.63.1.53.53,0,0,0,.33-.42,1,1,0,0,0-.06-.55A2.27,2.27,0,0,0,376.19,212.07Z" style="fill:#fff;opacity:0.1"></path><path d="M170.8,39.14a.74.74,0,0,1-.73-.74V30.26a.74.74,0,1,1,1.47,0V38.4A.74.74,0,0,1,170.8,39.14Z" style="fill:#e0e0e0"></path><path d="M163.11,41.56a.73.73,0,0,1-1-.17l-4.79-6.58a.74.74,0,0,1,.16-1,.74.74,0,0,1,1,.16l4.79,6.59A.74.74,0,0,1,163.11,41.56Z" style="fill:#e0e0e0"></path><path d="M158.32,48a.75.75,0,0,1-.93.48L149.65,46a.74.74,0,1,1,.45-1.4l7.74,2.52A.73.73,0,0,1,158.32,48Z" style="fill:#e0e0e0"></path><path d="M158.24,56.09a.73.73,0,0,1-.47.93L150,59.54a.75.75,0,0,1-.93-.48.73.73,0,0,1,.47-.92l7.74-2.52A.74.74,0,0,1,158.24,56.09Z" style="fill:#e0e0e0"></path><path d="M162.92,62.66a.74.74,0,0,1,.16,1l-4.78,6.58a.74.74,0,0,1-1,.16.72.72,0,0,1-.16-1l4.78-6.59A.74.74,0,0,1,162.92,62.66Z" style="fill:#e0e0e0"></path><path d="M170.56,65.22a.74.74,0,0,1,.74.74V74.1a.74.74,0,0,1-.74.73.73.73,0,0,1-.73-.73V66A.73.73,0,0,1,170.56,65.22Z" style="fill:#e0e0e0"></path><path d="M178.25,62.8a.74.74,0,0,1,1,.16l4.78,6.59a.73.73,0,1,1-1.19.86l-4.78-6.58A.74.74,0,0,1,178.25,62.8Z" style="fill:#e0e0e0"></path><path d="M183.05,56.32a.74.74,0,0,1,.93-.47l7.74,2.52a.73.73,0,0,1,.47.92.75.75,0,0,1-.93.48l-7.74-2.52A.73.73,0,0,1,183.05,56.32Z" style="fill:#e0e0e0"></path><path d="M183.12,48.26a.73.73,0,0,1,.48-.92l7.74-2.52a.74.74,0,0,1,.45,1.4l-7.74,2.52A.75.75,0,0,1,183.12,48.26Z" style="fill:#e0e0e0"></path><path d="M178.45,41.7a.74.74,0,0,1-.17-1l4.79-6.59a.74.74,0,0,1,1.19.87l-4.79,6.59A.73.73,0,0,1,178.45,41.7Z" style="fill:#e0e0e0"></path><path d="M26.67,379.75c.78-2.23,3.11-3.57,7-4l83,47.84v8.05Z" style="fill:#455a64"></path><path d="M179.33,395.41c-.79-2.24-3.12-3.58-7-4l-55.77,32.19v8.05Z" style="fill:#37474f"></path><polygon points="116.59 423.57 116.59 367.63 137.5 343.48 172.36 323.36 172.36 391.38 116.59 423.57" style="fill:#D50000"></polygon><polygon points="116.59 423.57 116.59 367.63 137.5 343.48 172.36 323.36 172.36 391.38 116.59 423.57" style="fill:#fff;opacity:0.45"></polygon><polygon points="116.59 423.57 33.64 375.73 33.64 319.78 116.59 367.63 116.59 423.57" style="fill:#D50000"></polygon><polygon points="116.59 423.57 33.64 375.73 33.64 319.78 116.59 367.63 116.59 423.57" style="fill:#fff;opacity:0.65"></polygon><polygon points="33.64 319.78 54.55 295.64 89.4 275.51 172.36 323.36 137.5 343.48 116.59 367.63 33.64 319.78" style="fill:#D50000"></polygon><polygon points="33.64 319.78 54.55 295.64 89.4 275.51 172.36 323.36 137.5 343.48 116.59 367.63 33.64 319.78" style="fill:#fff;opacity:0.75"></polygon><polygon points="54.55 295.64 137.5 343.48 172.36 323.36 89.4 275.51 54.55 295.64" style="fill:#fff;opacity:0.25"></polygon><path d="M46.21,360.14l8.2,4.71a5.14,5.14,0,0,1,2.33,4v4.71c0,1.48-1,2.08-2.33,1.34l-8.2-4.71a5.16,5.16,0,0,1-2.33-4v-4.71C43.88,360,44.93,359.4,46.21,360.14Z" style="fill:#455a64"></path><path d="M48.42,365.45l1.07-.62h0a1.41,1.41,0,0,1,1.42.14,4.49,4.49,0,0,1,2,3.5,1.43,1.43,0,0,1-.59,1.31h0l-1,.57-.18-.3a2.08,2.08,0,0,1-.58-.22,4.48,4.48,0,0,1-2-3.51,2,2,0,0,1,.06-.51Z" style="fill:#D50000"></path><path d="M48.42,365.45l1.07-.62h0a1.41,1.41,0,0,1,1.42.14,4.49,4.49,0,0,1,2,3.5,1.43,1.43,0,0,1-.59,1.31h0l-1,.57-.18-.3a2.08,2.08,0,0,1-.58-.22,4.48,4.48,0,0,1-2-3.51,2,2,0,0,1,.06-.51Z" style="opacity:0.2"></path><path d="M49.89,365.56a4.46,4.46,0,0,1,2,3.5c0,1.29-.9,1.81-2,1.17a4.47,4.47,0,0,1-2-3.5C47.87,365.44,48.78,364.92,49.89,365.56Z" style="fill:#D50000"></path><path d="M49.89,365.56a4.46,4.46,0,0,1,2,3.5c0,1.29-.9,1.81-2,1.17a4.47,4.47,0,0,1-2-3.5C47.87,365.44,48.78,364.92,49.89,365.56Z" style="fill:#fff;opacity:0.25"></path><path d="M46.21,340.13l8.2,4.72a5.12,5.12,0,0,1,2.33,4v4.71c0,1.48-1,2.08-2.33,1.34l-8.2-4.71a5.16,5.16,0,0,1-2.33-4v-4.71C43.88,340,44.93,339.39,46.21,340.13Z" style="fill:#455a64"></path><path d="M48.42,345.44l1.07-.62h0a1.41,1.41,0,0,1,1.42.14,4.51,4.51,0,0,1,2,3.51,1.42,1.42,0,0,1-.59,1.3h0l-1,.57-.18-.3a1.81,1.81,0,0,1-.58-.22,4.46,4.46,0,0,1-2-3.5,2.12,2.12,0,0,1,.06-.52Z" style="fill:#D50000"></path><path d="M48.42,345.44l1.07-.62h0a1.41,1.41,0,0,1,1.42.14,4.51,4.51,0,0,1,2,3.51,1.42,1.42,0,0,1-.59,1.3h0l-1,.57-.18-.3a1.81,1.81,0,0,1-.58-.22,4.46,4.46,0,0,1-2-3.5,2.12,2.12,0,0,1,.06-.52Z" style="opacity:0.2"></path><path d="M49.89,345.55a4.48,4.48,0,0,1,2,3.51c0,1.28-.9,1.81-2,1.16a4.47,4.47,0,0,1-2-3.5C47.87,345.43,48.78,344.91,49.89,345.55Z" style="fill:#D50000"></path><path d="M49.89,345.55a4.48,4.48,0,0,1,2,3.51c0,1.28-.9,1.81-2,1.16a4.47,4.47,0,0,1-2-3.5C47.87,345.43,48.78,344.91,49.89,345.55Z" style="fill:#fff;opacity:0.25"></path><path d="M63.33,348.18l39.78,22.95a2.85,2.85,0,0,1,1.29,2.23v11c0,.83-.58,1.16-1.29.75L63.33,362.14A2.85,2.85,0,0,1,62,359.91v-11C62,348.1,62.62,347.77,63.33,348.18Z" style="fill:#455a64"></path><path d="M64.46,353a2.77,2.77,0,0,0,1.29,2.14l34.94,20.16c.71.41,1.29.11,1.29-.66a2.77,2.77,0,0,0-1.29-2.14L65.75,352.37C65,352,64.46,352.25,64.46,353Z" style="fill:#D50000"></path><path d="M64.46,353a2.77,2.77,0,0,0,1.29,2.14l34.94,20.16c.71.41,1.29.11,1.29-.66a2.77,2.77,0,0,0-1.29-2.14L65.75,352.37C65,352,64.46,352.25,64.46,353Z" style="fill:#fff;opacity:0.45"></path><path d="M100.7,380.9c.7.41,1.28.12,1.28-.65a2.79,2.79,0,0,0-1.28-2.14l-15.64-9v2.78Z" style="fill:#D50000"></path><path d="M64.46,358.6a2.79,2.79,0,0,0,1.29,2.15l19.31,11.12v-2.79L65.75,358C65,357.54,64.46,357.83,64.46,358.6Z" style="fill:#263238"></path><path d="M63.33,368.25l39.78,22.95a2.85,2.85,0,0,1,1.29,2.23v11c0,.83-.58,1.16-1.29.75l-39.78-23A2.85,2.85,0,0,1,62,380V369C62,368.17,62.62,367.84,63.33,368.25Z" style="fill:#455a64"></path><path d="M64.46,373.09a2.77,2.77,0,0,0,1.29,2.14l34.94,20.15c.71.41,1.29.12,1.29-.65a2.77,2.77,0,0,0-1.29-2.14L65.75,372.44C65,372,64.46,372.32,64.46,373.09Z" style="fill:#D50000"></path><path d="M64.46,373.09a2.77,2.77,0,0,0,1.29,2.14l34.94,20.15c.71.41,1.29.12,1.29-.65a2.77,2.77,0,0,0-1.29-2.14L65.75,372.44C65,372,64.46,372.32,64.46,373.09Z" style="fill:#fff;opacity:0.45"></path><path d="M100.7,401c.7.41,1.28.12,1.28-.65a2.82,2.82,0,0,0-1.28-2.15l-10.81-6.23v2.79Z" style="fill:#D50000"></path><path d="M64.46,378.67a2.8,2.8,0,0,0,1.29,2.15l24.14,13.91v-2.79L65.75,378C65,377.61,64.46,377.9,64.46,378.67Z" style="fill:#263238"></path><path d="M166.54,347.46a1,1,0,0,0-1,.1L124.2,371.41a3.24,3.24,0,0,0-1.48,2.55v34.93a1,1,0,0,0,.43.94l1.31.76a1.05,1.05,0,0,0,1-.1l41.31-23.85a3.28,3.28,0,0,0,1.47-2.56V349.16a1,1,0,0,0-.43-1Z" style="fill:#D50000"></path><path d="M125.5,372.16l41.31-23.85c.81-.47,1.47-.09,1.47.85v34.92a3.28,3.28,0,0,1-1.47,2.56L125.5,410.49c-.82.47-1.48.09-1.48-.85V374.71A3.24,3.24,0,0,1,125.5,372.16Z" style="fill:#D50000"></path><path d="M125.5,372.16l41.31-23.85c.81-.47,1.47-.09,1.47.85v34.92a3.28,3.28,0,0,1-1.47,2.56L125.5,410.49c-.82.47-1.48.09-1.48-.85V374.71A3.24,3.24,0,0,1,125.5,372.16Z" style="fill:#fff;opacity:0.15"></path><path d="M124.42,410.56a.37.37,0,0,0,.22.1.67.67,0,0,1-.18-.07Z" style="fill:#D50000"></path><path d="M124.94,410.68a.78.78,0,0,0,.21,0A.78.78,0,0,1,124.94,410.68Z" style="fill:#D50000"></path><path d="M124.74,410.68h0Z" style="fill:#D50000"></path><path d="M124,409.64a1.12,1.12,0,0,0,.33.88c-.32-.18-1-.56-1.2-.69a1,1,0,0,1-.43-.94V374a2.87,2.87,0,0,1,.44-1.45l1.29.75a3,3,0,0,0-.43,1.46Z" style="opacity:0.5"></path><path d="M153.29,364.67c-2.44-1.41-5.59-1.14-8.86.74-6.32,3.66-11.28,12.24-11.28,19.54,0,3.78,1.34,6.63,3.79,8a6.73,6.73,0,0,0,3.43.9,10.93,10.93,0,0,0,5.42-1.64c6.33-3.65,11.28-12.23,11.28-19.54C157.07,368.94,155.73,366.08,153.29,364.67Zm1.06,8a18.5,18.5,0,0,1-1.45,6.78,13.31,13.31,0,0,1-6.73-.94,40.47,40.47,0,0,1,7.29-9.9A8.36,8.36,0,0,1,154.35,372.71Zm-4.51-6.21a3.77,3.77,0,0,1,2.57.87,44,44,0,0,0-6.86,8.86,26.88,26.88,0,0,1,.15-8.4l.09-.06A8.34,8.34,0,0,1,149.84,366.5Zm-6,2.64a31.61,31.61,0,0,0,.3,8.76,13,13,0,0,1-5.43-2.56A22,22,0,0,1,143.82,369.14Zm-5.9,7.69a15.33,15.33,0,0,0,5.41,2.59,49.52,49.52,0,0,0-6.91,8.83,9.26,9.26,0,0,1-.55-3.3A19.24,19.24,0,0,1,137.92,376.83Zm.38,13.81a4,4,0,0,1-.93-.77,48.39,48.39,0,0,1,6.55-8.68,28.5,28.5,0,0,0,.14,8.9C141.81,391.28,139.78,391.49,138.3,390.64Zm7.27-1.49a28.7,28.7,0,0,1,.16-9,14.44,14.44,0,0,0,5.6,1.06l.79,0A21.75,21.75,0,0,1,145.57,389.15Z" style="fill:#D50000;opacity:0.5"></path><path d="M147.19,380.79c-2.55,0-6.43-1.81-8.46-4l1.2-1.14a12.07,12.07,0,0,0,7.26,3.44Z" style="fill:#37474f"></path><path d="M138.86,392l-1.43-.82a50.21,50.21,0,0,1,9.2-11.8l1.13,1.2A48.58,48.58,0,0,0,138.86,392Z" style="fill:#37474f"></path><path d="M146.39,392.4a29.63,29.63,0,0,1,0-12.58l1.62.29A28,28,0,0,0,148,392Z" style="fill:#37474f"></path><path d="M153.41,382.37c-2.51,0-5.48-.62-6.77-1.79l1.1-1.23c1.31,1.18,6.35,1.81,8.17,1l.65,1.51A8.41,8.41,0,0,1,153.41,382.37Z" style="fill:#37474f"></path><path d="M147.94,380.31l-1.5-.69a40.92,40.92,0,0,1,9.16-12.12l1.06,1.26A39,39,0,0,0,147.94,380.31Z" style="fill:#37474f"></path><path d="M146.38,380.12a29.73,29.73,0,0,1,0-12.59l1.6.39a28.1,28.1,0,0,0,0,11.89Z" style="fill:#37474f"></path><path d="M142.45,395a6.83,6.83,0,0,1-3.43-.89c-2.45-1.41-3.79-4.27-3.79-8.05,0-7.3,5-15.88,11.28-19.53,3.27-1.89,6.42-2.16,8.86-.75s3.78,4.27,3.78,8.05c0,7.3-5,15.88-11.28,19.53A11,11,0,0,1,142.45,395Zm9.47-27.38a8.23,8.23,0,0,0-4,1.27c-5.47,3.15-9.92,10.86-9.92,17.17,0,2.77.86,4.78,2.43,5.69s3.74.64,6.13-.75h0c5.47-3.15,9.92-10.86,9.92-17.17,0-2.77-.86-4.78-2.42-5.69A4.16,4.16,0,0,0,151.92,367.64Z" style="fill:#455a64"></path><path d="M151.68,379l-3.12-1.79h0a1.44,1.44,0,0,0-1.42.15,4.47,4.47,0,0,0-2,3.5,1.42,1.42,0,0,0,.59,1.3h0l3.05,1.75.18-.3a1.9,1.9,0,0,0,.58-.22,4.47,4.47,0,0,0,2-3.5,2.11,2.11,0,0,0-.07-.52Z" style="fill:#263238"></path><path d="M150.21,379.11a4.47,4.47,0,0,0-2,3.5c0,1.29.91,1.81,2,1.16a4.45,4.45,0,0,0,2-3.5C152.23,379,151.33,378.46,150.21,379.11Z" style="fill:#455a64"></path><g id="freepik--Keyboard--inject-63"><path d="M109.45,355.89l12.93-14.82a1,1,0,0,0-.39-1.55L63,305.37a1.61,1.61,0,0,0-1.93.23L48.11,320.48a1,1,0,0,0,.38,1.55l59,34.08A1.58,1.58,0,0,0,109.45,355.89Z" style="fill:#263238"></path></g><path d="M109.45,355.89l12.86-14.73h0L63.25,307a1.58,1.58,0,0,0-1.92.22L48.48,322h0l59,34.08A1.58,1.58,0,0,0,109.45,355.89Z" style="fill:#455a64"></path><path d="M73.08,315.86l6.44,3.72c.55.32.6.67.18,1.07l-.18.16a1.1,1.1,0,0,1-1.42.1l-1.47-.85a1.12,1.12,0,0,0-1.46.12l-8.57,7.94a1.12,1.12,0,0,1-1.46.12l-.22-.13c-.55-.31-.61-.67-.18-1.06l8.57-7.94c.43-.4.37-.75-.17-1.07l-1.49-.86c-.54-.31-.61-.66-.21-1l.18-.16A1.13,1.13,0,0,1,73.08,315.86Z" style="fill:#fafafa"></path><path d="M70.71,329.56a1.09,1.09,0,0,1,.69.15,1,1,0,0,0,.69.16,1.18,1.18,0,0,0,.65-.32l7.16-6.64a.7.7,0,0,0,.29-.54.6.6,0,0,0-.36-.46c-.23-.14-.36-.29-.37-.46a.64.64,0,0,1,.27-.52l.17-.16a1.13,1.13,0,0,1,1.46-.13l3.1,1.8c.54.31.6.66.17,1.06l-.17.16a1,1,0,0,1-1.33.15,1.12,1.12,0,0,0-.71-.15,1.2,1.2,0,0,0-.66.32l-7.16,6.64a.65.65,0,0,0-.27.54.66.66,0,0,0,.38.46c.23.14.35.29.36.46a.67.67,0,0,1-.27.53l-.18.16a1.1,1.1,0,0,1-1.44.11l-3.1-1.79c-.55-.31-.61-.66-.19-1l.17-.16A1.21,1.21,0,0,1,70.71,329.56Z" style="fill:#fafafa"></path><path d="M82.17,336.61l-.8-.46c-.49-.28-.62-.63-.4-1l1.84-3.65a.54.54,0,0,0,0-.36.36.36,0,0,0-.19-.24.67.67,0,0,0-.43-.07,1,1,0,0,0-.46.24l-3.88,3.6a1.13,1.13,0,0,1-1.46.13l-.2-.12c-.55-.31-.6-.67-.18-1.07l10-9.24a1.13,1.13,0,0,1,1.45-.11l.3.18c.48.27.61.61.4,1l-4,7.91a.72.72,0,0,0-.11.44.36.36,0,0,0,.17.28.72.72,0,0,0,.43.06,2,2,0,0,0,.57-.19l9.39-4.78a1.49,1.49,0,0,1,1.46,0l.34.2c.55.31.61.66.19,1.05l-10,9.24a1.13,1.13,0,0,1-1.46.13l-.2-.12c-.54-.32-.6-.67-.17-1.07l3.71-3.44a.51.51,0,0,0,.21-.37.35.35,0,0,0-.2-.28.85.85,0,0,0-.8,0l-4.07,2.08A1.44,1.44,0,0,1,82.17,336.61Z" style="fill:#fafafa"></path><path d="M96.9,345.33l-.18.16a1.14,1.14,0,0,1-1.47.14l-5.18-3a1.17,1.17,0,0,1-.64-.92l-.15-.84a1,1,0,0,1,.36-.94l9-8.36a1.12,1.12,0,0,1,1.45-.11l6.42,3.71c.54.31.61.66.19,1.05l-.17.16a1.11,1.11,0,0,1-1.44.11l-4.59-2.65a1.12,1.12,0,0,0-1.45.11L97,335.9q-.66.62.15,1.08l4.59,2.66c.55.31.62.65.22,1l-.17.16a1.15,1.15,0,0,1-1.47.14l-4.59-2.66a1.09,1.09,0,0,0-1.41.09l-2.37,2.19c-.44.4-.39.76.16,1.08l4.59,2.65C97.22,344.62,97.29,345,96.9,345.33Z" style="fill:#fafafa"></path></g></g></svg>
