<svg xmlns="http://www.w3.org/2000/svg" viewBox="0 0 500 500"><g id="freepik--background-simple--inject-92"><path d="M80.11,220.88c11.45,75.47,66.21,64.7,126.69,95.21,48.21,24.33,66,65,125.14,72,51.55,6.14,98.3-22.25,107-58.63,10.57-44.31-5.64-88.65-60.72-106.66-42-13.72-107.21-1.77-136.85-31.67-34.11-34.41-8.47-76.63-56.7-100.62C95.77,46.33,78,207.28,80.11,220.88Z" style="fill:#D50000"></path><path d="M80.11,220.88c11.45,75.47,66.21,64.7,126.69,95.21,48.21,24.33,66,65,125.14,72,51.55,6.14,98.3-22.25,107-58.63,10.57-44.31-5.64-88.65-60.72-106.66-42-13.72-107.21-1.77-136.85-31.67-34.11-34.41-8.47-76.63-56.7-100.62C95.77,46.33,78,207.28,80.11,220.88Z" style="fill:#fff;opacity:0.9"></path></g><g id="freepik--Shadow--inject-92"><ellipse id="freepik--path--inject-92" cx="250" cy="416.24" rx="193.89" ry="11.32" style="fill:#f5f5f5"></ellipse></g><g id="freepik--Window--inject-92"><path d="M420.25,188.93h0a.49.49,0,0,1-.46-.53l.43-6.77a.52.52,0,0,1,.53-.47.5.5,0,0,1,.47.54l-.44,6.77A.49.49,0,0,1,420.25,188.93Z" style="fill:#D50000"></path><path d="M421.16,174.84h0a.5.5,0,0,1-.47-.53l1.48-23a.5.5,0,0,1,.53-.46.5.5,0,0,1,.47.53l-1.48,23A.5.5,0,0,1,421.16,174.84Z" style="fill:#D50000"></path><path d="M393.13,326.72H217.69a13.46,13.46,0,0,1-13.55-14.48l13.23-205.82a15.72,15.72,0,0,1,15.42-14.49H408.23a13.46,13.46,0,0,1,13.55,14.49L408.55,312.24A15.72,15.72,0,0,1,393.13,326.72Z" style="fill:#fff"></path><path d="M393.13,327.72H217.69a14.46,14.46,0,0,1-14.55-15.55l13.23-205.81a16.71,16.71,0,0,1,16.42-15.43H408.23a14.46,14.46,0,0,1,14.55,15.55L409.55,312.3A16.71,16.71,0,0,1,393.13,327.72ZM232.79,92.93a14.68,14.68,0,0,0-14.42,13.55L205.14,312.3a12.46,12.46,0,0,0,12.55,13.42H393.13a14.68,14.68,0,0,0,14.42-13.55l13.23-205.81a12.46,12.46,0,0,0-12.55-13.43Z" style="fill:#D50000"></path><path d="M408.23,91.93H232.79a15.72,15.72,0,0,0-15.42,14.49H421.78A13.46,13.46,0,0,0,408.23,91.93Z" style="fill:#D50000"></path><path d="M268.08,130.77h-26.9a2.06,2.06,0,0,1-2.08-2.21h0a2.41,2.41,0,0,1,2.36-2.22h26.91a2.06,2.06,0,0,1,2.07,2.22h0A2.4,2.4,0,0,1,268.08,130.77Z" style="fill:#263238"></path><path d="M338.26,144.08H253.63a2.06,2.06,0,0,1-2.08-2.22h0a2.41,2.41,0,0,1,2.36-2.22h84.64a2.06,2.06,0,0,1,2.07,2.22h0A2.4,2.4,0,0,1,338.26,144.08Z" style="fill:#D50000"></path><path d="M297.05,157.38H252.77a2,2,0,0,1-2.07-2.21h0a2.41,2.41,0,0,1,2.36-2.22h44.28a2.06,2.06,0,0,1,2.07,2.22h0A2.4,2.4,0,0,1,297.05,157.38Z" style="fill:#D50000"></path><path d="M376.62,170.69H251.92a2.06,2.06,0,0,1-2.08-2.22h0a2.41,2.41,0,0,1,2.36-2.22H376.9a2.06,2.06,0,0,1,2.08,2.22h0A2.41,2.41,0,0,1,376.62,170.69Z" style="fill:#D50000"></path><path d="M358.48,157.38H314.2a2.06,2.06,0,0,1-2.08-2.21h0a2.41,2.41,0,0,1,2.36-2.22h44.28a2.07,2.07,0,0,1,2.08,2.22h0A2.4,2.4,0,0,1,358.48,157.38Z" style="fill:#D50000"></path><path d="M259.53,263.83H232.62a2.06,2.06,0,0,1-2.07-2.22h0a2.41,2.41,0,0,1,2.36-2.22h26.91a2.06,2.06,0,0,1,2.07,2.22h0A2.41,2.41,0,0,1,259.53,263.83Z" style="fill:#263238"></path><path d="M328.86,290.44H244.22a2.07,2.07,0,0,1-2.08-2.22h0A2.42,2.42,0,0,1,244.5,286h84.64a2.07,2.07,0,0,1,2.08,2.22h0A2.41,2.41,0,0,1,328.86,290.44Z" style="fill:#D50000"></path><path d="M287.64,303.74H243.36a2.06,2.06,0,0,1-2.07-2.22h0a2.41,2.41,0,0,1,2.36-2.21h44.28a2.05,2.05,0,0,1,2.07,2.21h0A2.41,2.41,0,0,1,287.64,303.74Z" style="fill:#D50000"></path><path d="M370.06,272.7H245.36a2.4,2.4,0,0,0-2.36,2.21h0a2.06,2.06,0,0,0,2.07,2.22H369.78a2.41,2.41,0,0,0,2.36-2.22h0A2.06,2.06,0,0,0,370.06,272.7Z" style="fill:#D50000"></path><path d="M349.07,303.74H304.79a2.06,2.06,0,0,1-2.07-2.22h0a2.4,2.4,0,0,1,2.36-2.21h44.27a2.06,2.06,0,0,1,2.08,2.21h0A2.41,2.41,0,0,1,349.07,303.74Z" style="fill:#D50000"></path><path d="M277.11,197.3H236.9a2.06,2.06,0,0,1-2.07-2.22h0a2.4,2.4,0,0,1,2.36-2.22H277.4a2.06,2.06,0,0,1,2.07,2.22h0A2.41,2.41,0,0,1,277.11,197.3Z" style="fill:#263238"></path><path d="M332.56,232.78H247.93a2.4,2.4,0,0,0-2.36,2.22h0a2.06,2.06,0,0,0,2.07,2.22h84.64a2.41,2.41,0,0,0,2.36-2.22h0A2.06,2.06,0,0,0,332.56,232.78Z" style="fill:#D50000"></path><path d="M279.75,219.48h-31a2.4,2.4,0,0,0-2.36,2.21h0a2.06,2.06,0,0,0,2.08,2.22h31a2.41,2.41,0,0,0,2.36-2.22h0A2.06,2.06,0,0,0,279.75,219.48Z" style="fill:#D50000"></path><path d="M307.81,206.17H249.64a2.4,2.4,0,0,0-2.36,2.22h0a2,2,0,0,0,2.07,2.21h58.18a2.4,2.4,0,0,0,2.36-2.21h0A2.07,2.07,0,0,0,307.81,206.17Z" style="fill:#D50000"></path><path d="M382.32,206.17H324.15a2.4,2.4,0,0,0-2.36,2.22h0a2,2,0,0,0,2.07,2.21H382a2.41,2.41,0,0,0,2.36-2.21h0A2.07,2.07,0,0,0,382.32,206.17Z" style="fill:#D50000"></path><path d="M354.48,219.48H296.9a2.4,2.4,0,0,0-2.36,2.21h0a2.06,2.06,0,0,0,2.08,2.22H354.2a2.41,2.41,0,0,0,2.36-2.22h0A2.06,2.06,0,0,0,354.48,219.48Z" style="fill:#D50000"></path><path d="M236.59,98.44a4.35,4.35,0,0,1-4.28,4,3.73,3.73,0,0,1-3.77-4,4.35,4.35,0,0,1,4.29-4A3.72,3.72,0,0,1,236.59,98.44Z" style="fill:#fff"></path><path d="M244.9,95.16a3,3,0,0,1,2.22.94,3,3,0,0,1,.8,2.29,3.6,3.6,0,0,1-3.54,3.32,3,3,0,0,1-3-3.22,3.6,3.6,0,0,1,3.54-3.33m0-.75a4.35,4.35,0,0,0-4.29,4,3.73,3.73,0,0,0,3.77,4,4.35,4.35,0,0,0,4.28-4,3.72,3.72,0,0,0-3.76-4Z" style="fill:#fff"></path><path d="M260.74,98.44a4.36,4.36,0,0,1-4.29,4,3.73,3.73,0,0,1-3.77-4,4.36,4.36,0,0,1,4.29-4A3.74,3.74,0,0,1,260.74,98.44Z" style="fill:#fff;opacity:0.5"></path></g><g id="freepik--Code--inject-92"><path d="M349.3,185.17l35,4.47a12.72,12.72,0,0,1,10.84,15.27L385.2,257a14.77,14.77,0,0,1-16,11.83L206.47,248a12.71,12.71,0,0,1-10.84-15.26l10-52.12a14.77,14.77,0,0,1,16-11.83l106.28,13.6" style="fill:#fff"></path><path d="M370.46,269.46h0c-.44,0-.88,0-1.33-.11l-3.68-.47a.5.5,0,0,1-.44-.56.51.51,0,0,1,.56-.43l3.69.47c.41.05.82.09,1.23.1a.5.5,0,0,1,0,1Zm4.91-.74a.5.5,0,0,1-.16-1,14.15,14.15,0,0,0,4.23-2.29.5.5,0,0,1,.7.09.5.5,0,0,1-.08.7,15.45,15.45,0,0,1-4.53,2.45A.45.45,0,0,1,375.37,268.72Zm-14.84-.47h-.06l-5-.64a.5.5,0,0,1-.44-.56.51.51,0,0,1,.56-.43l5,.63a.51.51,0,0,1,.44.56A.51.51,0,0,1,360.53,268.25ZM350.61,267h-.06l-5-.64a.49.49,0,0,1-.43-.56.49.49,0,0,1,.55-.43l5,.64a.5.5,0,0,1-.06,1Zm-9.92-1.27h-.06l-5-.63a.5.5,0,0,1-.43-.56.5.5,0,0,1,.56-.44l4.95.64a.5.5,0,0,1-.06,1Zm-9.92-1.27h-.06l-5-.63a.5.5,0,0,1,.13-1l5,.64a.5.5,0,0,1-.07,1Zm-9.92-1.26h-.06l-5-.63a.5.5,0,0,1-.43-.56.5.5,0,0,1,.56-.44l5,.64a.5.5,0,0,1-.07,1Zm62.27-.5a.48.48,0,0,1-.28-.08.5.5,0,0,1-.14-.69,13.89,13.89,0,0,0,1.89-4.41.5.5,0,1,1,1,.23,15,15,0,0,1-2,4.73A.52.52,0,0,1,383.12,262.68Zm-72.18-.77h-.07l-5-.63a.5.5,0,0,1-.43-.56.49.49,0,0,1,.56-.43l5,.63a.5.5,0,0,1-.06,1ZM301,260.64H301l-5-.63a.5.5,0,0,1-.43-.56.5.5,0,0,1,.56-.43l5,.63a.5.5,0,0,1-.06,1Zm-9.92-1.27H291l-5-.64a.5.5,0,1,1,.13-1l5,.63a.5.5,0,0,1-.06,1Zm-9.92-1.27h-.07l-5-.64a.5.5,0,1,1,.13-1l5,.63a.5.5,0,0,1,.43.56A.5.5,0,0,1,281.18,258.1Zm-9.92-1.27h-.07l-5-.64a.5.5,0,1,1,.13-1l5,.63a.5.5,0,0,1,.43.56A.49.49,0,0,1,271.26,256.83Zm-9.92-1.27h-.06l-5-.64a.5.5,0,0,1-.44-.55.5.5,0,0,1,.56-.44l5,.64a.5.5,0,0,1,.44.56A.51.51,0,0,1,261.34,255.56Zm-9.92-1.27h-.06l-5-.63a.5.5,0,1,1,.12-1l5,.64a.5.5,0,0,1-.06,1ZM386,253.2h-.1a.48.48,0,0,1-.39-.58l.93-4.91a.51.51,0,0,1,.59-.4.5.5,0,0,1,.4.59l-.94,4.91A.5.5,0,0,1,386,253.2ZM241.5,253h-.06l-5-.63a.51.51,0,0,1-.44-.56.5.5,0,0,1,.56-.44l5,.64a.5.5,0,0,1,.44.56A.51.51,0,0,1,241.5,253Zm-9.92-1.27h-.06l-5-.63a.51.51,0,0,1-.44-.56.5.5,0,0,1,.56-.43l5,.63a.5.5,0,0,1,.44.56A.51.51,0,0,1,231.58,251.76Zm-9.92-1.27h-.06l-5-.63a.5.5,0,0,1-.43-.56.49.49,0,0,1,.56-.43l5,.63a.5.5,0,0,1-.07,1Zm-9.92-1.27h-.06l-5-.63a.5.5,0,0,1-.43-.56.5.5,0,0,1,.56-.43l5,.63a.5.5,0,0,1-.07,1ZM202,247.13a.52.52,0,0,1-.24,0,13.15,13.15,0,0,1-4-3.3.5.5,0,0,1,.78-.63,11.83,11.83,0,0,0,3.67,3,.51.51,0,0,1,.2.68A.49.49,0,0,1,202,247.13Zm185.88-3.75h-.1a.5.5,0,0,1-.4-.58l.94-4.91a.51.51,0,0,1,.59-.4.5.5,0,0,1,.4.58L388.4,243A.51.51,0,0,1,387.91,243.38Zm-192-3.81a.5.5,0,0,1-.48-.36,13.47,13.47,0,0,1-.55-3.85c0-.42,0-.86.06-1.29a.49.49,0,0,1,.54-.45.5.5,0,0,1,.45.55c0,.4-.05.8-.05,1.19a12.46,12.46,0,0,0,.51,3.56.5.5,0,0,1-.34.62Zm193.87-6h-.09a.5.5,0,0,1-.4-.58l.94-4.92a.5.5,0,0,1,1,.19l-.94,4.91A.49.49,0,0,1,389.78,233.56ZM196.31,229.7h-.09a.5.5,0,0,1-.4-.59l.94-4.91a.5.5,0,0,1,.58-.4.51.51,0,0,1,.4.59l-.94,4.91A.51.51,0,0,1,196.31,229.7Zm195.35-6h-.09a.5.5,0,0,1-.4-.59l.94-4.91a.48.48,0,0,1,.58-.39.5.5,0,0,1,.4.58l-.94,4.91A.49.49,0,0,1,391.66,223.74Zm-193.47-3.86h-.1a.5.5,0,0,1-.39-.59l.93-4.91a.51.51,0,0,1,.59-.4.51.51,0,0,1,.4.59l-.94,4.91A.51.51,0,0,1,198.19,219.88Zm195.35-6h-.1a.51.51,0,0,1-.39-.59l.94-4.91a.5.5,0,0,1,.58-.4.51.51,0,0,1,.4.59l-.94,4.91A.5.5,0,0,1,393.54,213.91Zm-193.47-3.86H200a.5.5,0,0,1-.4-.58l.94-4.91a.51.51,0,0,1,.59-.4.5.5,0,0,1,.4.59l-.94,4.91A.5.5,0,0,1,200.07,210.05Zm195.28-6h0a.49.49,0,0,1-.45-.54c0-.41.05-.82.05-1.22a12.78,12.78,0,0,0-.5-3.54.49.49,0,0,1,.34-.62.5.5,0,0,1,.62.34,13.61,13.61,0,0,1,.54,3.82c0,.43,0,.87-.06,1.31A.49.49,0,0,1,395.35,204.08Zm-193.41-3.85h-.09a.5.5,0,0,1-.4-.58l.94-4.91a.5.5,0,0,1,.59-.4.49.49,0,0,1,.39.58l-.94,4.91A.49.49,0,0,1,201.94,200.23Zm190.65-5.5a.5.5,0,0,1-.39-.18,11.86,11.86,0,0,0-3.67-3.05.5.5,0,1,1,.48-.88,13.15,13.15,0,0,1,4,3.3.5.5,0,0,1-.08.7A.45.45,0,0,1,392.59,194.73Zm-188.77-4.32h-.09a.5.5,0,0,1-.4-.59l.94-4.91a.5.5,0,0,1,1,.19l-.94,4.91A.49.49,0,0,1,203.82,190.41Zm180.2-.3H384l-5-.63a.51.51,0,0,1-.44-.56.5.5,0,0,1,.56-.43l5,.63a.5.5,0,0,1-.06,1Zm-9.92-1.27H374l-5-.63a.51.51,0,0,1-.44-.56.52.52,0,0,1,.56-.43l5,.63a.5.5,0,0,1-.06,1Zm-9.92-1.27h-.06l-5-.63a.49.49,0,0,1-.43-.56.5.5,0,0,1,.56-.43l5,.63a.5.5,0,0,1-.07,1Zm-9.92-1.27h-.06l-5-.64a.49.49,0,0,1-.43-.56.5.5,0,0,1,.56-.43l5,.63a.51.51,0,0,1,.43.56A.5.5,0,0,1,354.26,186.3Zm-29.78-3.81h-.07l-5-.64a.5.5,0,0,1-.44-.56.52.52,0,0,1,.56-.43l5,.63a.5.5,0,0,1,.43.56A.49.49,0,0,1,324.48,182.49Zm-9.92-1.27h-.06l-5-.64a.5.5,0,0,1-.44-.56.51.51,0,0,1,.56-.43l5,.64a.5.5,0,0,1,.44.55A.51.51,0,0,1,314.56,181.22Zm-108.85-.63h-.11a.51.51,0,0,1-.38-.6,15,15,0,0,1,2-4.74.5.5,0,0,1,.84.55,13.76,13.76,0,0,0-1.89,4.41A.51.51,0,0,1,205.71,180.59Zm98.93-.64h-.06l-5-.64a.5.5,0,0,1-.44-.56.52.52,0,0,1,.56-.43l5,.64a.5.5,0,0,1,.44.56A.51.51,0,0,1,304.64,180Zm-9.92-1.27h-.06l-5-.64a.48.48,0,0,1-.43-.55.5.5,0,0,1,.56-.44l5,.64a.5.5,0,0,1-.07,1Zm-9.92-1.27h-.06l-5-.63a.5.5,0,0,1,.13-1l5,.64a.5.5,0,0,1-.07,1Zm-9.92-1.26h-.06l-5-.63a.5.5,0,0,1-.43-.56.5.5,0,0,1,.56-.43l5,.63a.5.5,0,0,1-.07,1ZM265,174.88h-.06l-5-.63a.5.5,0,0,1-.43-.56.5.5,0,0,1,.56-.43l5,.63a.5.5,0,0,1-.07,1Zm-9.91-1.27H255l-5-.63a.5.5,0,1,1,.13-1l5,.63a.5.5,0,0,1-.06,1Zm-44-1.26a.51.51,0,0,1-.39-.19.5.5,0,0,1,.08-.7,15.55,15.55,0,0,1,4.52-2.46.5.5,0,0,1,.33.95,14.61,14.61,0,0,0-4.23,2.29A.51.51,0,0,1,211,172.35Zm34.1,0h-.07l-5-.64a.5.5,0,0,1-.43-.56.51.51,0,0,1,.56-.43l5,.63a.5.5,0,0,1-.06,1Zm-9.92-1.27h-.07l-5-.64a.5.5,0,0,1-.43-.56.51.51,0,0,1,.56-.43l5,.63a.5.5,0,0,1,.43.56A.5.5,0,0,1,235.21,171.07Zm-9.92-1.27h-.07l-3.67-.47a10.53,10.53,0,0,0-1.24-.1.5.5,0,0,1-.49-.52.5.5,0,0,1,.5-.48h0a12.3,12.3,0,0,1,1.34.11l3.67.46a.5.5,0,0,1,.43.56A.49.49,0,0,1,225.29,169.8Z" style="fill:#263238"></path><path d="M264.71,197.37l-37.3-4.77a2,2,0,0,1-1.66-2.34h0a2.27,2.27,0,0,1,2.46-1.81l37.29,4.77a2,2,0,0,1,1.66,2.34h0A2.26,2.26,0,0,1,264.71,197.37Z" style="fill:#263238"></path><path d="M311.91,237.39l-78.5-10a2.26,2.26,0,0,0-2.45,1.81h0a2,2,0,0,0,1.66,2.34l78.49,10a2.27,2.27,0,0,0,2.46-1.81h0A2,2,0,0,0,311.91,237.39Z" style="fill:#D50000"></path><path d="M264.51,218.59l-28.72-3.68a2.26,2.26,0,0,0-2.45,1.81h0a2,2,0,0,0,1.66,2.34l28.72,3.67a2.25,2.25,0,0,0,2.45-1.81h0A1.93,1.93,0,0,0,264.51,218.59Z" style="fill:#D50000"></path><path d="M292.12,209.37l-54-6.9a2.26,2.26,0,0,0-2.45,1.81h0a2,2,0,0,0,1.66,2.34l53.95,6.9a2.26,2.26,0,0,0,2.45-1.81h0A2,2,0,0,0,292.12,209.37Z" style="fill:#D50000"></path><path d="M361.22,218.21l-54-6.9a2.26,2.26,0,0,0-2.45,1.81h0a2,2,0,0,0,1.66,2.34l53.95,6.9a2.26,2.26,0,0,0,2.45-1.81h0A2,2,0,0,0,361.22,218.21Z" style="fill:#D50000"></path><path d="M333.82,227.45l-53.4-6.83a2.26,2.26,0,0,0-2.45,1.81h0a2,2,0,0,0,1.66,2.34L333,231.6a2.26,2.26,0,0,0,2.45-1.81h0A2,2,0,0,0,333.82,227.45Z" style="fill:#D50000"></path><path d="M337,183.64l8.86-2.79s-4.35-1.38-6.72-.28a12.74,12.74,0,0,0-3.22,2.49l-4.18-2.22a1.2,1.2,0,0,0,.95-.55,1,1,0,0,0,.09-.79,2.12,2.12,0,0,0-1.11-1.26,1.76,1.76,0,0,0-2.35.26,1,1,0,0,0-.09.78,2.17,2.17,0,0,0,1.11,1.27l3.88,2.06a4,4,0,0,1,1.14.89,4.76,4.76,0,0,1-1.37.69l-4.39,1.38c-1.05.33-1.76,1.15-1.59,1.84s1.17,1,2.23.63,1.76-1.15,1.59-1.83a1.05,1.05,0,0,0-.78-.7l4.73-1.49a10.38,10.38,0,0,0,2.42,3c2,1.47,6.64.83,6.64.83Zm-7.29-4.51a.59.59,0,0,1,0-.41c.2-.34,1-.43,1.68,0a1.69,1.69,0,0,1,.88,1,.51.51,0,0,1,0,.4.72.72,0,0,1-.57.29,2,2,0,0,1-1.11-.24A1.72,1.72,0,0,1,329.67,179.13Zm1.63,7.23c.1.36-.41.95-1.22,1.21s-1.53.05-1.63-.32.42-.95,1.23-1.21S331.21,186,331.3,186.36Z" style="fill:#D50000"></path></g></svg>